<svg width="21" height="21" viewBox="0 0 21 21" fill="none" xmlns="http://www.w3.org/2000/svg">
<g clip-path="url(#clip0)">
<path d="M21.0009 10.4999C21.0009 10.1958 20.7543 9.94923 20.4501 9.94923H19.5836L20.4086 9.12428C20.6236 8.9092 20.6236 8.56048 20.4086 8.34544C20.1935 8.1304 19.8448 8.13036 19.6297 8.34544L18.0259 9.94927H17.2107L18.0356 9.12432C18.2507 8.90924 18.2507 8.56053 18.0356 8.34548C17.8205 8.1304 17.4718 8.1304 17.2568 8.34548L15.653 9.94931H11.8305L14.5334 7.24635H16.8015C17.1057 7.24635 17.3523 6.99981 17.3523 6.69564C17.3523 6.39147 17.1057 6.14493 16.8015 6.14493H15.6349L16.2113 5.5685H18.4794C18.7836 5.5685 19.0301 5.32195 19.0301 5.01778C19.0301 4.71361 18.7836 4.46707 18.4794 4.46707H17.3128L17.9256 3.8543C18.1406 3.63921 18.1406 3.2905 17.9256 3.07546C17.7105 2.86037 17.3618 2.86037 17.1467 3.07546L16.534 3.68823V2.52142C16.534 2.21725 16.2874 1.97071 15.9832 1.97071C15.6791 1.97071 15.4325 2.21725 15.4325 2.52142V4.78953L14.8561 5.36596V4.19936C14.8561 3.89519 14.6096 3.64865 14.3054 3.64865C14.0012 3.64865 13.7547 3.89519 13.7547 4.19936V6.46747L11.0517 9.17043V5.34791L12.6555 3.74409C12.8706 3.52901 12.8706 3.18029 12.6555 2.96525C12.4404 2.75016 12.0917 2.75016 11.8767 2.96525L11.0517 3.79019V2.97497L12.6555 1.37114C12.8706 1.15606 12.8706 0.807347 12.6555 0.592303C12.4404 0.377219 12.0917 0.377219 11.8767 0.592303L11.0517 1.41725V0.550714C11.0516 0.246543 10.8051 0 10.5009 0C10.1968 0 9.9502 0.246543 9.9502 0.550714V1.41725L9.12526 0.592303C8.91018 0.377219 8.5615 0.377219 8.34642 0.592303C8.13133 0.807388 8.13133 1.1561 8.34642 1.37114L9.95024 2.97497V3.79019L9.1253 2.96525C8.91022 2.75016 8.56154 2.75016 8.34646 2.96525C8.13138 3.18033 8.13138 3.52905 8.34646 3.74409L9.95028 5.34791V9.17043L7.24733 6.46747V4.19932C7.24733 3.89515 7.00079 3.64861 6.69662 3.64861C6.39245 3.64861 6.1459 3.89515 6.1459 4.19932V5.36596L5.56947 4.78953V2.52138C5.56947 2.21721 5.32293 1.97067 5.01876 1.97067C4.71459 1.97067 4.46804 2.21721 4.46804 2.52138V3.68802L3.85519 3.07537C3.64011 2.86029 3.2914 2.86029 3.07635 3.07537C2.86127 3.29046 2.86127 3.63917 3.07635 3.85422L3.68912 4.46699H2.5224C2.21823 4.46699 1.97168 4.71353 1.97168 5.0177C1.97168 5.32187 2.21823 5.56841 2.5224 5.56841H4.79051L5.36694 6.14484H4.20034C3.89617 6.14484 3.64962 6.39139 3.64962 6.69556C3.64962 6.99973 3.89617 7.24627 4.20034 7.24627H6.46845L9.1714 9.94923H5.34889L3.74503 8.3454C3.52994 8.13032 3.18127 8.13032 2.96618 8.3454C2.7511 8.56049 2.7511 8.9092 2.96618 9.12424L3.79113 9.94918H2.97595L1.37212 8.3454C1.15704 8.13032 0.808365 8.13032 0.59328 8.3454C0.378195 8.56049 0.378195 8.9092 0.59328 9.12424L1.41822 9.94918H0.55169C0.24752 9.94918 0.000976562 10.1958 0.000976562 10.4999C0.000976562 10.8041 0.24752 11.0506 0.55169 11.0506H1.41826L0.593321 11.8756C0.378236 12.0907 0.378236 12.4394 0.593321 12.6544C0.700863 12.762 0.841792 12.8158 0.982721 12.8158C1.12365 12.8158 1.26462 12.762 1.37212 12.6544L2.97595 11.0506H3.79117L2.96623 11.8756C2.75114 12.0907 2.75114 12.4394 2.96623 12.6544C3.07377 12.762 3.2147 12.8158 3.35563 12.8158C3.49655 12.8158 3.63752 12.762 3.74503 12.6544L5.34885 11.0506H9.17136L6.46841 13.7536H4.2003C3.89613 13.7536 3.64958 14.0001 3.64958 14.3043C3.64958 14.6084 3.89613 14.855 4.2003 14.855H5.36694L4.79051 15.4314H2.52236C2.21819 15.4314 1.97164 15.678 1.97164 15.9821C1.97164 16.2863 2.21819 16.5329 2.52236 16.5329H3.689L3.07623 17.1456C2.86114 17.3607 2.86114 17.7094 3.07623 17.9245C3.18377 18.032 3.3247 18.0858 3.46563 18.0858C3.60656 18.0858 3.74753 18.032 3.85503 17.9245L4.4678 17.3117V18.4783C4.4678 18.7825 4.71434 19.029 5.01851 19.029C5.32268 19.029 5.56923 18.7825 5.56923 18.4783V16.2102L6.14566 15.6338V16.8004C6.14566 17.1046 6.3922 17.3511 6.69637 17.3511C7.00054 17.3511 7.24708 17.1046 7.24708 16.8004V14.5323L9.95004 11.8294V15.6519L8.34621 17.2557C8.13113 17.4708 8.13113 17.8195 8.34621 18.0345C8.5613 18.2496 8.91001 18.2496 9.12506 18.0345L9.95 17.2096V18.0248L8.34617 19.6286C8.13109 19.8437 8.13109 20.1924 8.34617 20.4075C8.45372 20.515 8.59464 20.5688 8.73557 20.5688C8.87654 20.5688 9.01747 20.515 9.12497 20.4075L9.94992 19.5825V20.449C9.94992 20.7532 10.1965 20.9998 10.5006 20.9998C10.8048 20.9998 11.0513 20.7532 11.0513 20.449V19.5825L11.8763 20.4075C12.0914 20.6226 12.4401 20.6226 12.6552 20.4075C12.8702 20.1924 12.8703 19.8437 12.6552 19.6287L11.0513 18.0248V17.2096L11.8763 18.0346C11.9839 18.1421 12.1248 18.1959 12.2657 18.1959C12.4066 18.1959 12.5476 18.1421 12.6551 18.0346C12.8702 17.8195 12.8702 17.4708 12.6551 17.2557L11.0513 15.6519V11.8297L13.7543 14.5326V16.8007C13.7543 17.1049 14.0008 17.3514 14.305 17.3514C14.6091 17.3514 14.8557 17.1049 14.8557 16.8007V15.6341L15.4321 16.2105V18.4786C15.4321 18.7828 15.6787 19.0293 15.9828 19.0293C16.287 19.0293 16.5335 18.7828 16.5335 18.4786V17.312L17.1463 17.9247C17.2539 18.0323 17.3948 18.0861 17.5357 18.0861C17.6767 18.0861 17.8176 18.0323 17.9251 17.9247C18.1402 17.7097 18.1402 17.361 17.9251 17.1459L17.3123 16.5331H18.479C18.7832 16.5331 19.0297 16.2866 19.0297 15.9824C19.0297 15.6783 18.7832 15.4317 18.479 15.4317H16.2109L15.6344 14.8553H16.8011C17.1053 14.8553 17.3518 14.6087 17.3518 14.3046C17.3518 14.0004 17.1053 13.7539 16.8011 13.7539H14.533L11.83 11.0509H15.6525L17.2564 12.6547C17.3639 12.7623 17.5049 12.816 17.6458 12.816C17.7866 12.816 17.9277 12.7623 18.0352 12.6547C18.2502 12.4396 18.2502 12.091 18.0352 11.8759L17.2102 11.0509H18.0254L19.6292 12.6547C19.7368 12.7623 19.8777 12.816 20.0186 12.816C20.1595 12.816 20.3005 12.7623 20.408 12.6547C20.6231 12.4396 20.6231 12.091 20.408 11.8759L19.583 11.0509H20.4496C20.7543 11.0507 21.0009 10.8041 21.0009 10.4999Z" fill="#80C7EA"/>
</g>
<defs>
<clipPath id="clip0">
<rect width="21" height="21" fill="white"/>
</clipPath>
</defs>
</svg>
