<svg width="48" height="20" viewBox="0 0 48 20" fill="none" xmlns="http://www.w3.org/2000/svg">
<path d="M18.0184 0.250101L11.8053 13.9502H7.75153L4.69376 3.01633C4.50862 2.34445 4.34741 2.09715 3.78319 1.81316C2.86111 1.35021 1.33844 0.917222 0 0.647797L0.0902997 0.250101H6.61642C7.447 0.250101 8.19485 0.761224 8.38484 1.64624L10.0005 9.57468L13.9892 0.250101H18.0184ZM23.4985 0.250101L20.3277 13.9502H16.4927L19.6635 0.250101H23.4985ZM33.9012 9.47721C33.9172 5.8621 28.4929 5.66157 28.5283 4.04614C28.5414 3.55518 29.0474 3.03229 30.1552 2.8987C30.704 2.83317 32.22 2.78079 33.9372 3.51205L34.609 0.605227C33.6863 0.296872 32.4991 0 31.0222 0C27.2311 0 24.5642 1.86105 24.543 4.52814C24.5182 6.50093 26.4478 7.60048 27.899 8.25752C29.3938 8.92856 29.8949 9.35987 29.888 9.95949C29.8774 10.8787 28.6944 11.2856 27.5944 11.3007C25.6657 11.329 24.5476 10.819 23.6558 10.435L22.9598 13.4382C23.857 13.8183 25.5106 14.1485 27.2232 14.1653C31.2534 14.1653 33.8893 12.3255 33.9012 9.47721ZM43.912 13.9502H47.4576L44.3599 0.250101H41.0885C40.3506 0.250101 39.7306 0.645836 39.4555 1.25442L33.7012 13.9502H37.7283L38.5271 11.9037H43.4472L43.912 13.9502ZM39.6313 9.09632L41.6506 3.95148L42.8105 9.09632H39.6313ZM28.4064 17.7212H26.8483V19.0616H28.5913V19.4647H26.3232V15.7459H28.5019V16.1489H26.8483V17.3238H28.4064V17.7212ZM29.3962 15.5475H29.9214V19.4645H29.3962V15.5475ZM31.2461 18.2176C31.2579 18.8744 31.7058 19.1446 32.2366 19.1446C32.613 19.1446 32.8457 19.0838 33.0369 19.0068L33.1324 19.3544C32.9472 19.4314 32.6251 19.5252 32.1651 19.5252C31.2761 19.5252 30.7449 18.9791 30.7449 18.1736C30.7449 17.3682 31.2579 16.7391 32.0997 16.7391C33.0487 16.7391 33.2936 17.5006 33.2936 17.9916C33.2936 18.0907 33.2875 18.1624 33.2754 18.2176H31.2461ZM32.786 17.87C32.7921 17.5667 32.6488 17.0867 32.0579 17.0867C31.5206 17.0867 31.2937 17.5337 31.2518 17.87H32.786ZM36.1515 19.3707C36.0142 19.4315 35.7097 19.5253 35.3218 19.5253C34.4503 19.5253 33.8834 18.9792 33.8834 18.1625C33.8834 17.3405 34.4918 16.7392 35.4351 16.7392C35.7454 16.7392 36.02 16.8106 36.1633 16.8826L36.0442 17.2523C35.9185 17.1915 35.7215 17.1252 35.4351 17.1252C34.7724 17.1252 34.4146 17.5831 34.4146 18.1351C34.4146 18.7529 34.8442 19.1335 35.4173 19.1335C35.7157 19.1335 35.9127 19.0674 36.0618 19.0067L36.1515 19.3707ZM37.6248 16.1543V16.7943H38.3766V17.1637H37.6248V18.6038C37.6248 18.9351 37.7264 19.1225 38.0188 19.1225C38.1618 19.1225 38.2457 19.1116 38.3233 19.0892L38.3472 19.4591C38.2457 19.4922 38.0845 19.5252 37.8815 19.5252C37.6367 19.5252 37.4397 19.4479 37.3145 19.3213C37.1712 19.1721 37.1115 18.9351 37.1115 18.6206V17.1637H36.6637V16.7943H37.1115V16.2977L37.6248 16.1543ZM39.1104 17.6274C39.1104 17.3129 39.104 17.0427 39.0864 16.7942H39.5461L39.57 17.3238H39.5876C39.7191 16.9654 40.0412 16.7391 40.3933 16.7391C40.4473 16.7391 40.4891 16.7447 40.537 16.75V17.2082C40.483 17.197 40.4297 17.197 40.3576 17.197C39.9879 17.197 39.7249 17.4507 39.6534 17.8151C39.6416 17.8812 39.6355 17.9638 39.6355 18.0414V19.4647H39.1104V17.6274ZM43.7654 18.1073C43.7654 19.0949 43.0191 19.5253 42.3267 19.5253C41.5507 19.5253 40.9422 18.9954 40.9422 18.1516C40.9422 17.2632 41.5807 16.7392 42.3746 16.7392C43.2042 16.7392 43.7654 17.2963 43.7654 18.1073ZM41.4792 18.1351C41.4792 18.7198 41.8373 19.1612 42.3506 19.1612C42.8521 19.1612 43.2279 18.7252 43.2279 18.1239C43.2279 17.6715 42.9833 17.103 42.3625 17.103C41.7479 17.103 41.4792 17.6329 41.4792 18.1351ZM44.5703 17.5169C44.5703 17.2357 44.5639 17.015 44.5464 16.7943H45.0118L45.0418 17.2357H45.0536C45.197 16.9873 45.5312 16.7392 46.0087 16.7392C46.4084 16.7392 47.0293 16.9599 47.0293 17.8754V19.4645H46.5042V17.9253C46.5042 17.4951 46.3312 17.1363 45.8357 17.1363C45.4954 17.1363 45.2266 17.3626 45.1315 17.6329C45.1073 17.6936 45.0954 17.7763 45.0954 17.8592V19.4645H44.5703V17.5169Z" fill="#0066CB"/>
</svg>
