<svg width="45" height="46" fill="none" xmlns="http://www.w3.org/2000/svg"><circle cx="22.5" cy="22.602" r="22.5" fill="url(#paint0_radial)"/><path d="M9 16.78c.092-.677.161-1.358.278-2.03.66-3.804 3.237-6.393 6.92-6.525 4.436-.16 8.885-.168 13.32 0 4.01.15 6.913 3.254 7.038 7.447.134 4.453.134 8.916 0 13.369-.125 4.193-3.028 7.296-7.038 7.447a172.99 172.99 0 01-13.32-.002c-4.01-.158-6.781-3.268-7.05-7.468-.023-.363-.097-.723-.148-1.085V16.78zm13.832 17.223c2.03 0 4.061.064 6.088-.014 3.178-.124 5.133-2.106 5.207-5.426a279.21 279.21 0 000-12.414c-.074-3.318-2.03-5.348-5.207-5.418a274.69 274.69 0 00-12.1 0c-3.153.07-5.113 2.057-5.199 5.34a242.163 242.163 0 000 12.571c.086 3.282 2.046 5.224 5.199 5.347 2.001.078 4.008.014 6.012.014z" fill="#fff"/><path d="M22.828 14.991c-3.892 0-7.048 3.299-7.048 7.368 0 4.069 3.156 7.368 7.048 7.368s7.047-3.299 7.047-7.368c0-4.07-3.155-7.368-7.047-7.368zm0 12.199c-2.552 0-4.621-2.163-4.621-4.831 0-2.669 2.069-4.832 4.62-4.832 2.553 0 4.622 2.163 4.622 4.832 0 2.668-2.069 4.831-4.621 4.831zm9.136-12.535c0 .968-.751 1.752-1.677 1.752s-1.677-.784-1.677-1.752.751-1.753 1.677-1.753 1.677.785 1.677 1.753z" fill="#fff"/><defs><radialGradient id="paint0_radial" cx="0" cy="0" r="1" gradientUnits="userSpaceOnUse" gradientTransform="translate(9.225 39.428) scale(49.6271)"><stop stop-color="#FAE100"/><stop offset=".054" stop-color="#FADC04"/><stop offset=".117" stop-color="#FBCE0E"/><stop offset=".183" stop-color="#FCB720"/><stop offset=".251" stop-color="#FE9838"/><stop offset=".305" stop-color="#FF7950"/><stop offset=".492" stop-color="#FF1C74"/><stop offset="1" stop-color="#6C1CD1"/></radialGradient></defs></svg>