<svg width="45" height="45" viewBox="0 0 45 45" fill="none" xmlns="http://www.w3.org/2000/svg">
<path d="M22.5 45C34.9264 45 45 34.9264 45 22.5C45 10.0736 34.9264 0 22.5 0C10.0736 0 0 10.0736 0 22.5C0 34.9264 10.0736 45 22.5 45Z" fill="#039BE5"/>
<path d="M10.2953 22.0125L31.989 13.6481C32.9959 13.2844 33.8753 13.8938 33.549 15.4163L33.5509 15.4144L29.8571 32.8163C29.5834 34.05 28.8503 34.35 27.8246 33.7688L22.1996 29.6231L19.4865 32.2369C19.1865 32.5369 18.9334 32.79 18.3521 32.79L18.7515 27.0656L29.1765 17.6475C29.6303 17.2481 29.0753 17.0231 28.4771 17.4206L15.594 25.5319L10.0403 23.7994C8.83464 23.4169 8.80839 22.5938 10.2953 22.0125Z" fill="white"/>
</svg>
