<svg width="45" height="46" fill="none" xmlns="http://www.w3.org/2000/svg"><path d="M22.5 45.102c12.426 0 22.5-10.073 22.5-22.5C45 10.176 34.926.102 22.5.102S0 10.176 0 22.602c0 12.427 10.074 22.5 22.5 22.5z" fill="#0E46FB"/><path fill-rule="evenodd" clip-rule="evenodd" d="M22.21 30.04h1.614s.487-.053.736-.314c.23-.24.222-.69.222-.69s-.031-2.11.974-2.42c.99-.306 2.263 2.038 3.611 2.94 1.02.682 1.795.532 1.795.532l3.605-.049s1.887-.113.992-1.557c-.073-.118-.52-1.069-2.68-3.021-2.261-2.044-1.959-1.713.765-5.248 1.658-2.153 2.322-3.467 2.114-4.03-.197-.536-1.417-.394-1.417-.394l-4.06.024s-.3-.04-.524.09c-.218.128-.358.425-.358.425s-.643 1.666-1.5 3.082c-1.808 2.99-2.53 3.148-2.826 2.962-.687-.433-.516-1.738-.516-2.665 0-2.898.451-4.105-.879-4.418-.44-.104-.765-.172-1.894-.184-1.449-.014-2.675.005-3.369.336-.462.22-.818.711-.601.74.268.034.876.159 1.198.586.416.551.401 1.79.401 1.79s.24 3.41-.558 3.833c-.547.29-1.298-.303-2.91-3.015-.825-1.389-1.449-2.924-1.449-2.924s-.12-.288-.334-.441c-.26-.186-.624-.245-.624-.245l-3.858.024s-.58.016-.792.261c-.189.218-.015.67-.015.67s3.02 6.88 6.44 10.349c3.136 3.18 6.697 2.97 6.697 2.97z" fill="#fff"/></svg>