<svg class="fill" width="16" height="16" viewBox="4 4 16 16" fill="#B3B3B3" xmlns="http://www.w3.org/2000/svg"><path class="stroke" d="M17.565 4H6.435A2.437 2.437 0 004 6.435v7.652a2.437 2.437 0 002.435 2.435h7.508l3.376 3.376a.35.35 0 00.38.076.348.348 0 00.214-.322v-3.155A2.44 2.44 0 0020 14.087V6.435A2.437 2.437 0 0017.565 4zm1.74 10.087c0 .96-.781 1.74-1.74 1.74a.348.348 0 00-.348.347v2.639l-2.884-2.885a.35.35 0 00-.246-.102H6.435c-.959 0-1.74-.78-1.74-1.74v-7.65c0-.96.781-1.74 1.74-1.74h11.13c.959 0 1.74.78 1.74 1.74v7.652z" stroke="#B3B3B3" stroke-width=".8"/><circle cx="9" cy="10" r="1"/><circle cx="12" cy="10" r="1"/><circle cx="15" cy="10" r="1"/></svg>