<svg opacity=".1" width="70" height="63" fill="none" xmlns="http://www.w3.org/2000/svg"><path fill-rule="evenodd" clip-rule="evenodd" d="M16.938 34.057l-2.557 9.322-9.342.185A35.034 35.034 0 01.665 26.576a35.1 35.1 0 014.099-16.493h.006l8.32 1.494 3.64 8.067a20.848 20.848 0 00.202 14.413h.006z" fill="#FBBB00"/><path fill-rule="evenodd" clip-rule="evenodd" d="M73.436 19.883a35.102 35.102 0 01-1.629 19.096c-2.305 6.104-6.265 11.48-11.457 15.556l-10.474-.526-1.48-9.035c4.323-2.477 7.645-6.329 9.41-10.911H38.178V19.877h35.257v.006z" fill="#518EF8"/><path fill-rule="evenodd" clip-rule="evenodd" d="M60.35 54.535a37.062 37.062 0 01-14.325 6.886 37.56 37.56 0 01-15.964.295 37.138 37.138 0 01-14.581-6.354A36.109 36.109 0 015.04 43.564l11.898-9.507a21.278 21.278 0 005.139 7.721 21.91 21.91 0 007.994 4.885 22.314 22.314 0 009.357 1.136 22.194 22.194 0 008.974-2.825l11.954 9.56h-.006z" fill="#28B446"/><path fill-rule="evenodd" clip-rule="evenodd" d="M60.803-1.025L48.91 8.488a22.181 22.181 0 00-9.19-3.096 22.322 22.322 0 00-9.653 1.106 21.908 21.908 0 00-8.206 5.09 21.257 21.257 0 00-5.131 8.062L4.763 10.083A36.066 36.066 0 0115.242-2.053a37.123 37.123 0 0114.817-6.525 37.553 37.553 0 0116.249.364A37.033 37.033 0 0160.803-1.03v.006z" fill="#F14336"/></svg>