<svg width="40" height="40" fill="none" xmlns="http://www.w3.org/2000/svg"><circle cx="20" cy="20" r="20" fill="#0E46FB"/><g clip-path="url(#clip0)" fill="#fff"><path d="M14.14 9.375l1.37 4.192h4.429l-3.584 2.59 1.37 4.192-3.585-2.59-3.584 2.59 1.37-4.192-3.585-2.59h4.43l1.37-4.192z"/><path d="M25.596 9.375l1.369 4.192h4.43l-3.584 2.59 1.369 4.192-3.584-2.59-3.584 2.59 1.369-4.192-3.584-2.59h4.43l1.369-4.192zM8.597 15.993l1.37 4.191h4.43l-3.585 2.59 1.37 4.192-3.585-2.59-3.584 2.59 1.37-4.191-3.585-2.59h4.43l1.37-4.192z"/><path d="M20.053 15.993l1.369 4.191h4.43l-3.584 2.59 1.369 4.192-3.584-2.59-3.584 2.59 1.369-4.191-3.584-2.59h4.43l1.369-4.192z"/><path d="M31.139 15.993l1.369 4.191h4.43l-3.584 2.59 1.368 4.192-3.583-2.59-3.584 2.59 1.369-4.191-3.584-2.59h4.43l1.369-4.192z"/></g><defs><clipPath id="clip0"><path fill="#fff" d="M2.5 9.375h35v18.75h-35z"/></clipPath></defs></svg>