<svg width="92" height="96" viewBox="0 0 92 96" fill="none" xmlns="http://www.w3.org/2000/svg">
<path opacity="0.6" fill-rule="evenodd" clip-rule="evenodd" d="M92 2.38293C91.3668 1.97258 90.6948 1.60626 89.9872 1.2887C84.6692 -1.09799 78.6884 -0.123652 74.3786 3.83061L65.1904 12.2597C63.235 9.21494 59.847 7.19518 55.9997 7.19518C52.1464 7.19518 48.7538 9.22092 46.7999 12.2739L37.5963 3.83039C33.2863 -0.12343 27.305 -1.09755 21.9878 1.28914C16.67 3.67516 13.3667 8.81568 13.3667 14.704C13.3667 17.3524 14.0669 19.8366 15.2843 21.9839H10.9565C4.91508 21.9836 0 26.9592 0 33.0749V47.8634C0 49.9051 1.63515 51.5606 3.65224 51.5606H7.30449V96H14.6085V51.5606H45.0432V96H52.3479V51.5606H59.6521V96H66.9564V51.5606H92V44.1662H66.9564V29.3778H92V2.38293ZM45.0434 44.1662H7.30427V33.0749C7.30427 31.0364 8.9427 29.3778 10.9565 29.3778H45.0434V44.1662ZM27.8624 21.9836C23.8971 21.9836 20.671 18.7178 20.671 14.7038C20.671 11.7383 22.2698 9.25037 24.948 8.04861C25.9262 7.60972 26.9331 7.39403 27.9232 7.39403C29.6439 7.39403 31.3136 8.04595 32.6915 9.30972L46.5066 21.9836H27.8624ZM55.9999 14.5895C57.7234 14.5895 59.1685 15.8059 59.5502 17.4344L55.9876 20.7026L52.4452 17.4525C52.8199 15.815 54.2698 14.5895 55.9999 14.5895ZM59.6521 44.1662H52.3479V29.3778H59.6521V44.1662ZM79.2836 9.30994C81.4545 7.31874 84.349 6.84752 87.0271 8.04905C89.705 9.25059 91.3041 11.7387 91.3041 14.704C91.3041 18.7181 88.078 21.9839 84.1127 21.9839H65.4685L79.2836 9.30994Z" fill="#FF8A00"/>
</svg>
