<svg width="411" height="421" fill="none" xmlns="http://www.w3.org/2000/svg"><g opacity=".1" filter="url(#filter0_f)"><path d="M266.221 107.816a8 8 0 00-9.07-1.74L29.457 209.36c-4.864 2.206-6.241 8.47-2.75 12.513l123.174 142.653a8.002 8.002 0 009.948 1.761l222.1-123.699c4.584-2.553 5.51-8.754 1.873-12.535L266.221 107.816z" fill="#070707"/></g><path d="M268.387 60.67a8 8 0 00-9.07-1.74L18.741 168.057c-4.865 2.207-6.242 8.471-2.75 12.514l130.312 150.92a8 8 0 009.948 1.761l234.678-130.705c4.584-2.553 5.511-8.754 1.873-12.535L268.387 60.669z" fill="url(#paint0_linear)"/><mask id="a" maskUnits="userSpaceOnUse" x="10" y="2" width="389" height="367"><path d="M268.387 60.67a8 8 0 00-9.07-1.74L18.741 168.057c-4.865 2.207-6.242 8.471-2.75 12.514l130.312 150.92a8 8 0 009.948 1.761l234.678-130.705c4.584-2.553 5.511-8.754 1.873-12.535L268.387 60.669z" fill="url(#paint1_linear)"/></mask><g mask="url(#a)"><circle r="71.99" transform="scale(1 -1) rotate(64.993 318.183 -69.388)" fill="url(#paint2_linear)"/></g><path fill-rule="evenodd" clip-rule="evenodd" d="M141.234 184.141a.3.3 0 01.502-.271l7.707 7.352c.094.09.235.109.349.047l9.387-5.06a.3.3 0 01.412.395l-4.623 9.602a.299.299 0 00.063.347l7.706 7.351a.3.3 0 01-.247.515l-10.565-1.417a.3.3 0 00-.31.167l-4.625 9.604c-.126.262-.514.21-.565-.076l-1.905-10.478a.3.3 0 00-.255-.244l-10.563-1.416c-.289-.039-.359-.424-.103-.561l9.387-5.06a.301.301 0 00.153-.318l-1.905-10.479zM114.15 198.74c-.21-.201-.554-.015-.503.271l1.905 10.479a.3.3 0 01-.152.318l-9.387 5.059a.3.3 0 00.102.562l10.563 1.416a.302.302 0 01.256.244l1.904 10.478a.3.3 0 00.566.076l4.624-9.604a.302.302 0 01.311-.167l10.565 1.417a.3.3 0 00.246-.515l-7.705-7.351a.3.3 0 01-.064-.347l4.624-9.603c.126-.261-.157-.532-.412-.394l-9.387 5.06a.3.3 0 01-.35-.047l-7.706-7.352zm115.92-30.618c1.856-1.001 3.103-2.46 3.739-4.379.631-1.931.466-3.786-.493-5.565-.959-1.779-2.415-2.93-4.367-3.453-1.96-.535-3.867-.302-5.724.699-1.856 1.001-3.1 2.466-3.73 4.397-.624 1.912-.457 3.758.502 5.537.959 1.779 2.412 2.939 4.359 3.48 1.953.524 3.857.285 5.714-.716zm-1.269-2.355c-1.173.632-2.357.79-3.552.474-1.201-.328-2.115-1.073-2.742-2.236-.627-1.163-.747-2.336-.361-3.52.387-1.184 1.166-2.092 2.339-2.724 1.173-.632 2.359-.784 3.561-.456 1.201.328 2.115 1.073 2.742 2.236.627 1.163.747 2.336.36 3.52-.392 1.172-1.175 2.074-2.347 2.706zm-35.716 19.14l1.954 1.783 2.748-1.482-11.088-9.78-3.133 1.689 2.093 14.629 2.729-1.472-.415-2.612 5.112-2.755zm-6.449-5.866l4.448 4.04-3.518 1.896-.93-5.936zm21.572-4.019c-.671-1.245-1.734-1.872-3.19-1.883.474-1.05.438-2.082-.107-3.093-.539-1-1.36-1.616-2.462-1.848-1.096-.249-2.194-.078-3.293.515l-5.056 2.726 6.581 12.209 5.441-2.933c1.124-.605 1.892-1.447 2.304-2.525.412-1.077.34-2.133-.218-3.168zm-10.367-2.696l2.528-1.363c.403-.217.802-.267 1.196-.15.395.118.695.369.902.752.207.384.245.776.114 1.177-.118.394-.373.696-.764.907l-2.528 1.363-1.448-2.686zm7.772 3.892c.226.418.273.843.143 1.273-.137.419-.419.744-.847.974l-2.913 1.57-1.551-2.878 2.913-1.57c.428-.23.857-.282 1.288-.154.425.116.748.378.967.785zm9.353-16.027l1.241 2.302-3.463 1.867 5.341 9.907-2.529 1.363-5.34-9.907-3.444 1.856-1.241-2.302 9.435-5.086zm31.209-5.477c.589 1.093.632 2.21.128 3.352-.503 1.142-1.439 2.082-2.807 2.819-2.382 1.284-4.493 1.184-6.333-.301l1.55-2.343c1.03.975 2.217 1.101 3.561.376.696-.375 1.152-.801 1.368-1.277.216-.477.195-.954-.062-1.43-.257-.477-.643-.756-1.16-.838-.505-.088-1.093.049-1.765.411l-1.594.859-1.156-2.145 1.209-.652c.635-.342 1.061-.737 1.277-1.184.21-.458.193-.914-.052-1.368-.244-.453-.588-.725-1.031-.817-.45-.102-.974.007-1.572.33-1.099.593-1.593 1.519-1.481 2.779l-2.783-.03c-.067-2.2.95-3.867 3.051-4.999 1.27-.685 2.484-.919 3.641-.702 1.157.217 2.024.86 2.601 1.93.589 1.093.595 2.2.017 3.322 1.554-.042 2.685.594 3.393 1.908zm11.422-4.582l1.955 1.783 2.748-1.481-11.089-9.78-3.132 1.688 2.092 14.63 2.73-1.472-.415-2.612 5.111-2.756zm-6.448-5.866l4.448 4.041-3.518 1.896-.93-5.937zm12.245-10.179c1.234-.665 2.485-.829 3.754-.493 1.269.336 2.214 1.08 2.834 2.231.621 1.152.723 2.35.306 3.595-.416 1.245-1.241 2.2-2.475 2.865l-2.253 1.214 2.162 4.012-2.528 1.363-6.582-12.21 4.782-2.577zm3.206 5.948c.538-.29.889-.705 1.056-1.245a2.071 2.071 0 00-.184-1.612c-.288-.534-.703-.881-1.246-1.039-.542-.158-1.082-.092-1.619.198l-2.253 1.214 1.993 3.698 2.253-1.214zm17.106-1.14l2.528-1.363-6.581-12.209-5.13 2.765c-1.185.638-1.979 1.577-2.383 2.815-.405 1.239-.306 2.416.296 3.533.438.813 1.096 1.419 1.973 1.817a4.682 4.682 0 002.768.354l-.708 6.189 2.84-1.531.665-5.828 1.447-.78 2.285 4.238zm-3.422-6.349l-2.602 1.403a1.888 1.888 0 01-1.509.138 2.053 2.053 0 01-1.209-1.014 1.987 1.987 0 01-.173-1.55c.153-.533.469-.928.945-1.185l2.602-1.402 1.946 3.61zm18.597-4.802l1.374-.74 2.501 4.639-2.528 1.363-1.26-2.337-7.09 3.822 1.259 2.337-2.528 1.363-2.501-4.64 1.246-.672c.201-1.323-.188-2.892-1.166-4.706l-3.112-5.774 8.465-4.562 5.34 9.907zm-6.815 3.674l4.287-2.311-4.128-7.657-3.408 1.837 1.918 3.558c.953 1.767 1.397 3.292 1.331 4.573zm-11.76 13.987l-1.482.799c.081.2.087.368.018.504-.069.135-.253.328-.554.579-.434.368-.755.713-.964 1.033-.209.32-.353.774-.434 1.362-.079.582-.021 1.215.173 1.899.199.681.494 1.386.886 2.114.655 1.214 1.398 1.952 2.231 2.213.836.256 1.711.136 2.628-.357.92-.497 1.496-1.173 1.726-2.029.235-.858.079-1.795-.47-2.812-.543-1.009-1.228-1.637-2.052-1.882-.82-.248-1.636-.154-2.446.283a2.947 2.947 0 00-.734.536c-.18.19-.375.537-.584 1.038-.151-.432-.217-.811-.197-1.138.018-.332.11-.61.278-.835.167-.225.484-.531.952-.918.576-.477.938-.887 1.085-1.231.149-.35.129-.736-.06-1.158zm-.747 7.772c-.75-1.39-.621-2.358.389-2.902.983-.53 1.85-.1 2.6 1.291.741 1.375.62 2.327-.364 2.858-1.009.544-1.884.128-2.625-1.247zm-59.288 33.414l1.395-.535a2.952 2.952 0 01-.253 1.895c-.297.622-.815 1.132-1.554 1.531-.886.478-1.753.579-2.599.303-.846-.275-1.53-.897-2.052-1.866-.496-.921-.635-1.829-.415-2.726.22-.896.796-1.596 1.729-2.099.912-.492 1.778-.575 2.597-.248.819.326 1.479.956 1.982 1.888l.078.161-4.389 2.365c.223.415.442.725.657.931.219.203.5.332.845.385.344.052.7-.02 1.068-.218.713-.385 1.017-.974.911-1.767zm-1.071-1.774c-.24-.436-.572-.718-.996-.848a1.536 1.536 0 00-1.231.127c-.397.214-.658.523-.784.928-.127.401-.086.851.123 1.35l2.888-1.557zm-4.258-2.093a.818.818 0 01-.608.086.703.703 0 01-.443-.352.722.722 0 01-.054-.57.761.761 0 01.396-.479.872.872 0 01.604-.092.669.669 0 01.476.367.66.66 0 01.041.592.87.87 0 01-.412.448zm2.121-1.144a.808.808 0 01-.617.084.698.698 0 01-.44-.347.73.73 0 01-.054-.57.786.786 0 01.403-.481.855.855 0 01.598-.089c.21.037.371.158.481.363a.66.66 0 01.042.592.867.867 0 01-.413.448zm-17.622 18.744l-1.558.84-1.928-3.576-3.3 1.779 1.928 3.576-1.558.84-4.437-8.231 1.558-.84 1.824 3.383 3.299-1.779-1.823-3.383 1.558-.84 4.437 8.231zm8.204-4.422l-1.374.741a5.392 5.392 0 01-.885-1.111c.103 1.112-.375 1.953-1.435 2.525-.637.343-1.246.443-1.825.299a2 2 0 01-1.301-1.035c-.754-1.398.159-2.793 2.739-4.184.101-.054.239-.126.414-.216l-.247-.458c-.34-.631-.962-.703-1.865-.216-.879.473-1.207 1.057-.985 1.752l-1.323.488c-.205-.543-.155-1.107.151-1.692.304-.589.911-1.13 1.823-1.621.494-.267.919-.444 1.275-.532a2.102 2.102 0 011.006-.029c.315.069.573.193.772.37.201.172.443.519.725 1.042l1.482 2.749c.214.398.499.774.853 1.128zm-3.267-2.239c-1.866 1.006-2.571 1.933-2.113 2.781a.992.992 0 00.629.501c.286.075.618.01.998-.195.549-.296.874-.684.975-1.164a1.94 1.94 0 00-.186-1.362l-.303-.561zm3.603-5.802l1.206 5.832-.582.314 1.329 2.467.937-.506-.583-1.491 4.123-2.222.926 1.306.937-.505-1.329-2.466-.583.314-4.038-4.306-2.343 1.263zm4.937 3.821l-2.572 1.386-1.036-4.546.519-.28 3.089 3.44zm19.872-9.334l-4.294-2.385.612-3.49-1.432.772-.435 3.316-.196.183-1.319-2.448-1.387.748 1.319 2.448-.26.063-3.01-1.46-1.507.813 3.596 1.758-.542 4.455 1.413-.761.364-3.737.492-.118 1.417 2.629 1.388-.748-1.418-2.629.363-.343 3.265 1.781 1.571-.847zm1.484-.8l-3.283-6.09 1.444-.778 1.265 2.345 2.501-1.348-1.264-2.346 1.444-.778 3.283 6.09-1.444.778-1.443-2.677-2.502 1.348 1.443 2.678-1.444.778zm4.814-10.454l3.283 6.09 3.128-1.687c.672-.362 1.104-.807 1.298-1.337.196-.537.129-1.11-.2-1.721-.299-.555-.722-.926-1.27-1.113-.544-.19-1.181-.088-1.911.306l-1.685.908-1.199-2.225-1.444.779zm5.551 3.49l-1.4.754-.968-1.797 1.399-.754c.663-.358 1.164-.223 1.502.404.162.302.202.563.12.784-.081.215-.298.418-.653.609zm.535-6.771l3.283 6.09 1.444-.778-3.283-6.091-1.444.779zm10.447-.277l1.396-.535c.128.642.043 1.274-.254 1.896-.297.621-.815 1.131-1.553 1.53-.887.478-1.754.579-2.6.303-.845-.275-1.53-.897-2.052-1.866-.496-.921-.634-1.829-.415-2.726.22-.896.796-1.596 1.73-2.099.912-.492 1.777-.574 2.596-.248.819.326 1.48.956 1.982 1.889l.079.16-4.39 2.366c.224.414.443.724.657.93.219.203.501.332.845.385.345.053.701-.02 1.068-.218.714-.385 1.017-.974.911-1.767zm-1.07-1.774c-.241-.435-.573-.718-.997-.848a1.536 1.536 0 00-1.231.127c-.397.214-.658.523-.783.928-.128.401-.087.851.123 1.35l2.888-1.557zm11.02 1.57l1.469-.792-1.566-2.907c.722.451 1.495.455 2.319.011.798-.43 1.225-1.073 1.281-1.928.061-.858-.141-1.719-.607-2.583-.492-.913-1.107-1.549-1.846-1.908-.738-.359-1.462-.348-2.172.035-.861.464-1.3 1.212-1.317 2.242l-.572-1.061-1.38.744 4.391 8.147zm.022-4.463c-.433-.146-.768-.44-1.007-.882l-.468-.868c-.277-.515-.368-1.002-.274-1.463.099-.464.341-.799.725-1.006.427-.23.853-.208 1.278.066.424.27.802.714 1.136 1.333.318.591.474 1.138.467 1.64-.006.496-.238.867-.699 1.116-.337.182-.724.203-1.158.064zm9.789-5.985l1.396-.535c.128.642.043 1.274-.254 1.896-.296.621-.814 1.132-1.553 1.53-.887.478-1.753.579-2.599.304-.846-.276-1.53-.898-2.053-1.867-.496-.92-.634-1.829-.414-2.726.219-.896.796-1.596 1.729-2.099.912-.492 1.777-.574 2.596-.248.819.327 1.48.956 1.983 1.889l.078.16-4.389 2.366c.223.414.442.724.656.93.219.204.501.332.845.385.345.053.701-.02 1.068-.218.714-.385 1.017-.974.911-1.767zm-1.07-1.773c-.24-.436-.573-.719-.997-.848a1.532 1.532 0 00-1.231.126c-.397.214-.658.524-.783.928-.127.401-.086.851.123 1.35l2.888-1.556zm17.303-4.471l-1.287-2.388-1.539.829.102 3.027-1.539.829.137-3.537c-.939.149-1.61-.151-2.013-.899-.34-.631-.4-1.203-.181-1.715.218-.517.632-.94 1.245-1.27l3.236-1.745 3.283 6.09-1.444.779zm-1.83-3.395l-.913-1.695-1.495.806c-.617.332-.764.796-.444 1.391.288.535.72.647 1.294.338l1.558-.84zm4.059-4.289l2.707 5.023 1.444-.778-2.707-5.023 1.748-.943-.576-1.067-4.965 2.677.575 1.067 1.774-.956zm13.084-.57l-1.375.74a5.381 5.381 0 01-.884-1.11c.103 1.111-.375 1.953-1.435 2.524-.638.344-1.246.444-1.825.299a1.999 1.999 0 01-1.301-1.034c-.755-1.399.158-2.794 2.738-4.184.102-.055.24-.127.415-.216l-.247-.458c-.34-.632-.962-.704-1.866-.216-.878.473-1.206 1.057-.984 1.752l-1.323.487c-.205-.543-.155-1.107.151-1.692.303-.589.911-1.129 1.823-1.621.494-.266.919-.443 1.275-.531a2.089 2.089 0 011.006-.029c.315.069.572.192.772.37.201.172.443.519.724 1.041l1.483 2.75c.214.398.498.774.853 1.128zm-3.267-2.239c-1.866 1.006-2.571 1.933-2.114 2.781a1 1 0 00.63.501c.285.074.618.009.998-.196.549-.296.874-.683.975-1.163a1.937 1.937 0 00-.187-1.363l-.302-.56zm-193.992 82.077a.3.3 0 00-.503.271l1.905 10.479a.299.299 0 01-.153.318l-9.386 5.06a.3.3 0 00.102.561l10.563 1.416a.303.303 0 01.256.244l1.904 10.478a.3.3 0 00.566.077l4.624-9.605a.301.301 0 01.31-.167l10.565 1.417a.3.3 0 00.247-.515l-7.705-7.351a.3.3 0 01-.064-.347l4.624-9.602a.3.3 0 00-.413-.395l-9.386 5.06a.3.3 0 01-.35-.047l-7.706-7.352zm26.06-14.048a.3.3 0 01.502-.271l7.707 7.352c.094.09.235.109.349.047l9.387-5.06a.3.3 0 01.413.395l-4.624 9.602a.299.299 0 00.063.347l7.706 7.351a.3.3 0 01-.247.515l-10.565-1.417a.3.3 0 00-.31.167l-4.625 9.604a.3.3 0 01-.565-.076l-1.905-10.478a.3.3 0 00-.255-.244l-10.563-1.416a.3.3 0 01-.103-.561l9.387-5.06a.301.301 0 00.153-.318l-1.905-10.479zm27.066-14.591a.3.3 0 00-.503.271l1.905 10.479a.299.299 0 01-.153.318l-9.386 5.06a.3.3 0 00.102.561l10.563 1.416a.303.303 0 01.256.244l1.904 10.478a.3.3 0 00.566.077l4.624-9.605a.302.302 0 01.31-.167l10.565 1.417a.3.3 0 00.247-.515l-7.705-7.351a.3.3 0 01-.064-.347l4.624-9.602a.3.3 0 00-.413-.395l-9.386 5.06a.3.3 0 01-.35-.047l-7.706-7.352z" fill="#fff"/><defs><linearGradient id="paint0_linear" x1="165.603" y1="99.421" x2="291.361" y2="291.68" gradientUnits="userSpaceOnUse"><stop stop-color="#143AB5"/><stop offset="1" stop-color="#958CFF"/></linearGradient><linearGradient id="paint1_linear" x1="268.698" y1="52.933" x2="155.957" y2="334.786" gradientUnits="userSpaceOnUse"><stop stop-color="#143AB5"/><stop offset="1" stop-color="#958CFF"/></linearGradient><linearGradient id="paint2_linear" x1="71.99" y1="0" x2="56.259" y2="128.371" gradientUnits="userSpaceOnUse"><stop stop-color="#FF8A00"/><stop offset="1" stop-color="#0E46FB"/></linearGradient><filter id="filter0_f" x=".67" y="31.288" width="409.457" height="389.666" filterUnits="userSpaceOnUse" color-interpolation-filters="sRGB"><feFlood flood-opacity="0" result="BackgroundImageFix"/><feBlend in="SourceGraphic" in2="BackgroundImageFix" result="shape"/><feGaussianBlur stdDeviation="10.5" result="effect1_foregroundBlur"/></filter></defs></svg>