<svg width="33" height="30" fill="none" xmlns="http://www.w3.org/2000/svg"><path d="M11.968 23.11c-1.867 0-3.333 1.455-3.333 3.306s1.466 3.306 3.333 3.306c1.867 0 3.333-1.455 3.333-3.306s-1.466-3.306-3.333-3.306zm0 5.29c-1.067 0-2-.926-2-1.984 0-1.058.933-1.983 2-1.983s2 .925 2 1.983-.933 1.983-2 1.983zm13.334-5.29c-1.867 0-3.334 1.455-3.334 3.306s1.467 3.306 3.334 3.306c1.866 0 3.333-1.455 3.333-3.306S27.168 23.11 25.3 23.11zm0 5.29c-1.067 0-2-.926-2-1.984 0-1.058.933-1.983 2-1.983 1.066 0 2 .925 2 1.983s-.934 1.983-2 1.983zm7.2-23.538c-.134-.132-.267-.264-.534-.264H6.635L5.968 1.16c0-.265-.4-.53-.667-.53h-4c-.4 0-.666.265-.666.662s.266.661.666.661h3.467l3.2 16.133c.4 2.115 2.4 3.702 4.534 3.702h15.333c.4 0 .666-.265.666-.661 0-.397-.266-.661-.666-.661h-15.2c-1.067 0-2.133-.53-2.667-1.455l19.467-2.645c.267 0 .533-.264.533-.528l2.667-10.58s0-.264-.133-.396zm-3.734 10.314L9.301 17.69l-2.4-11.901h24.134l-2.267 9.388z" fill="#0E46FB"/><path d="M9.01 18.151l-2.75-12.8h25.718l-3.125 10.321-19.843 2.48zm5.25 8.275a2.272 2.272 0 01-2.281 2.263 2.272 2.272 0 01-2.282-2.263 2.272 2.272 0 012.282-2.262 2.272 2.272 0 012.28 2.262zm13.125 0a2.272 2.272 0 01-2.282 2.263 2.272 2.272 0 01-2.28-2.263 2.272 2.272 0 012.28-2.262 2.272 2.272 0 012.282 2.262z" fill="#0E46FB"/></svg>