<svg width="22" height="21" fill="none" xmlns="http://www.w3.org/2000/svg"><path d="M7.792 15.583A2.27 2.27 0 005.5 17.875a2.27 2.27 0 002.292 2.292 2.27 2.27 0 002.291-2.292 2.27 2.27 0 00-2.291-2.292zm0 3.667c-.734 0-1.375-.642-1.375-1.375S7.058 16.5 7.792 16.5c.733 0 1.375.642 1.375 1.375s-.642 1.375-1.375 1.375zm9.166-3.667a2.27 2.27 0 00-2.291 2.292 2.27 2.27 0 002.291 2.292 2.27 2.27 0 002.292-2.292 2.27 2.27 0 00-2.292-2.292zm0 3.667c-.733 0-1.375-.642-1.375-1.375s.642-1.375 1.375-1.375c.734 0 1.375.642 1.375 1.375s-.641 1.375-1.375 1.375zm4.95-16.317c-.091-.091-.183-.183-.366-.183H4.125L3.667.367C3.667.183 3.392 0 3.208 0H.458C.183 0 0 .183 0 .458s.183.459.458.459h2.384l2.2 11.183c.275 1.467 1.65 2.567 3.116 2.567H18.7c.275 0 .458-.184.458-.459s-.183-.458-.458-.458H8.25c-.733 0-1.467-.367-1.833-1.008L19.8 10.908a.394.394 0 00.367-.366L22 3.208s0-.183-.092-.275zm-2.566 7.15L5.958 11.825l-1.65-8.25H20.9l-1.558 6.508z" fill="#0E46FB"/><path d="M5.758 12.146l-1.89-8.873h17.68L19.4 10.427 5.758 12.146z" fill="$neon_blue"/><path d="M9.367 17.882a1.568 1.568 0 11-3.137 0 1.568 1.568 0 013.137 0zm9.023 0a1.568 1.568 0 11-3.136 0 1.568 1.568 0 013.137 0z" fill="#0E46FB"/></svg>