<svg fill="#fff" width="10" height="9" xmlns="http://www.w3.org/2000/svg"><path d="M9.381.663c-.433-.226-.916.21-1.2.469-.65.614-1.2 1.326-1.816 1.972-.683.712-1.316 1.423-2.016 2.118-.4.388-.833.809-1.1 1.294-.6-.566-1.116-1.18-1.782-1.682C.984 4.48.184 4.22.2 5.077.234 6.192 1.25 7.389 2 8.148c.316.324.733.663 1.216.68C3.8 8.86 4.4 8.18 4.75 7.807c.617-.646 1.116-1.373 1.683-2.036.733-.873 1.483-1.73 2.2-2.62.45-.549 1.865-1.907.749-2.489zM.934 5.012c-.017 0-.034 0-.067.016a.827.827 0 01-.183-.065c.05-.032.133-.016.25.049z"/></svg>