<svg width="16" height="13" viewBox="0 0 16 13" fill="none" xmlns="http://www.w3.org/2000/svg">
<path d="M14.571 0.494932C13.9212 0.155422 13.1964 0.810191 12.7715 1.1982C11.7969 2.11973 10.9721 3.18676 10.0474 4.15679C9.02266 5.22382 8.07296 6.29085 7.02328 7.33367C6.42346 7.91569 5.77366 8.5462 5.37379 9.27373C4.47406 8.42491 3.6993 7.50339 2.69961 6.75165C1.97483 6.21814 0.775197 5.83013 0.800189 7.11541C0.850174 8.78875 2.37471 10.5833 3.49936 11.723C3.97421 12.2081 4.59902 12.7173 5.3238 12.7416C6.19853 12.7901 7.09826 11.7715 7.62309 11.2138C8.54785 10.2438 9.29762 9.15243 10.1473 8.15819C11.247 6.84866 12.3716 5.56333 13.4463 4.22954C14.1211 3.40502 16.2454 1.36792 14.571 0.494932ZM1.89981 7.01841C1.87482 7.01841 1.84983 7.01841 1.79984 7.04262C1.69987 7.01841 1.6249 6.99412 1.52493 6.94562C1.5999 6.89712 1.72486 6.92137 1.89981 7.01841Z" fill="white"/>
</svg>
