<svg width="18" height="18" fill="none" xmlns="http://www.w3.org/2000/svg"><path d="M2.61 17.093h12.78a.566.566 0 00.573-.572V1.465a.566.566 0 00-.572-.572H5.805c-.042 0-.098 0-.14.014-.014 0-.028.014-.028.014-.042.014-.07.028-.112.042-.013.014-.027.014-.041.028-.042.028-.084.055-.112.097L2.177 4.856a.572.572 0 00-.098.153c-.014.014-.014.042-.014.056-.014.042-.014.084-.028.126v11.316c0 .335.265.586.572.586zM5.231 3.028v1.646H3.837l1.395-1.646zm-2.05 2.777h2.623c.32 0 .572-.252.572-.572V2.037h8.442V15.95H3.18V5.805z" fill="#B3B3B3"/><path d="M12.512 7H5.488A.489.489 0 005 7.5c0 .28.214.5.488.5h7.024c.274 0 .488-.22.488-.5s-.214-.5-.488-.5zm0 2H5.488A.489.489 0 005 9.5c0 .28.214.5.488.5h7.024c.274 0 .488-.22.488-.5s-.214-.5-.488-.5z" fill="#B3B3B3"/></svg>