<svg width="92" height="95" fill="none" xmlns="http://www.w3.org/2000/svg"><path opacity=".6" fill-rule="evenodd" clip-rule="evenodd" d="M92 2.358a15.018 15.018 0 00-2.013-1.083C84.67-1.087 78.688-.122 74.38 3.791l-9.189 8.341C63.235 9.12 59.847 7.12 56 7.12c-3.854 0-7.246 2.005-9.2 5.026L37.596 3.79c-4.31-3.912-10.291-4.876-15.608-2.514-5.318 2.36-8.621 7.448-8.621 13.275 0 2.62.7 5.079 1.917 7.204h-4.328C4.917 21.755 0 26.678 0 32.73v14.635a3.656 3.656 0 003.652 3.658h3.652V95h7.304V51.023h30.435V95h7.305V51.023h7.304V95h7.304V51.023H92v-7.317H66.956V29.072H92V2.358zM45.043 43.706H7.304V32.73a3.66 3.66 0 013.652-3.658h34.087v14.634zm-17.18-21.951c-3.966 0-7.192-3.232-7.192-7.204 0-2.935 1.599-5.397 4.277-6.586a7.316 7.316 0 012.975-.648c1.72 0 3.39.645 4.768 1.896l13.816 12.542H27.862zM56 14.438a3.657 3.657 0 013.55 2.815l-3.562 3.234-3.543-3.216A3.657 3.657 0 0156 14.438zm3.652 29.268h-7.304V29.072h7.304v14.634zM79.284 9.213c2.17-1.97 5.065-2.437 7.743-1.248 2.678 1.19 4.277 3.651 4.277 6.586 0 3.972-3.226 7.204-7.191 7.204H65.469L79.284 9.213z" fill="#ECEBE9"/></svg>