<svg fill="red" width="25" height="22" xmlns="http://www.w3.org/2000/svg"><path d="M8.834 18.665l.002.002c.79.658 1.685 1.403 2.612 2.196a1.623 1.623 0 002.104.001 260.91 260.91 0 012.617-2.2h0l.015-.014c2.305-1.92 4.32-3.597 5.726-5.256 1.584-1.868 2.34-3.663 2.34-5.638 0-1.906-.669-3.673-1.893-4.97l-.181.171.181-.171C21.118 1.472 19.418.75 17.575.75a6.121 6.121 0 00-3.765 1.27c-.478.361-.916.79-1.31 1.281a7.436 7.436 0 00-1.31-1.281h0A6.12 6.12 0 007.425.75c-1.843 0-3.543.722-4.782 2.036h0C1.419 4.083.75 5.85.75 7.756c0 1.975.756 3.77 2.34 5.639h0c1.407 1.658 3.422 3.337 5.728 5.257l.012.01.002.002.002.001zm-4.325-6.434h0c-1.337-1.577-1.912-2.952-1.912-4.475 0-1.459.502-2.782 1.4-3.735.884-.937 2.1-1.454 3.428-1.454.967 0 1.853.3 2.639.893.705.533 1.2 1.21 1.492 1.69h0c.202.33.556.525.944.525.388 0 .742-.196.944-.526.292-.479.787-1.156 1.492-1.689a4.285 4.285 0 012.639-.893c1.329 0 2.544.517 3.428 1.454.898.953 1.4 2.276 1.4 3.735 0 1.523-.575 2.898-1.912 4.475-1.3 1.534-3.24 3.15-5.516 5.046-.749.624-1.593 1.327-2.477 2.077-.879-.749-1.721-1.45-2.468-2.073l-.003-.002-.002-.002s0 0 0 0c-2.276-1.896-4.216-3.513-5.516-5.046z" fill="#EB141E" stroke="#EB141E" stroke-width=".5"/></svg>