<svg width="23" height="20" viewBox="2 1 20 22" fill="none" xmlns="http://www.w3.org/2000/svg"><path d="M12 22.665c-.342 0-.671-.124-.928-.349-.97-.848-1.904-1.644-2.729-2.347l-.004-.004c-2.418-2.06-4.506-3.84-5.959-5.592C.756 12.413 0 10.555 0 8.524c0-1.972.676-3.791 1.904-5.123a6.454 6.454 0 014.8-2.09c1.386 0 2.655.438 3.771 1.302.564.436 1.075.97 1.525 1.592a7.69 7.69 0 011.525-1.592c1.117-.864 2.385-1.301 3.77-1.301 1.854 0 3.559.742 4.801 2.09C23.324 4.732 24 6.552 24 8.524c0 2.03-.756 3.888-2.38 5.847-1.453 1.753-3.54 3.533-5.958 5.593-.827.704-1.763 1.502-2.734 2.352a1.408 1.408 0 01-.928.348zM6.705 2.718a5.063 5.063 0 00-3.768 1.637c-.987 1.071-1.531 2.552-1.531 4.17 0 1.707.634 3.234 2.057 4.95 1.375 1.66 3.42 3.402 5.788 5.42l.004.004c.828.706 1.766 1.505 2.743 2.36.982-.856 1.922-1.657 2.752-2.364 2.368-2.018 4.413-3.76 5.787-5.42 1.423-1.716 2.057-3.243 2.057-4.95 0-1.618-.544-3.099-1.531-4.17a5.063 5.063 0 00-3.767-1.637c-1.067 0-2.047.34-2.911 1.008-.771.596-1.308 1.35-1.623 1.877a.88.88 0 01-.762.433.88.88 0 01-.762-.433c-.315-.527-.852-1.28-1.623-1.877a4.663 4.663 0 00-2.91-1.008z" fill="#EB141E" stroke="#EB141E" stroke-width=".5"/><path d="M4.5 2.5C7.7.9 10.833 3.5 12 5l1-1 4-2 4 1.5 2 4-.5 4L19 16l-7 5.5-7.5-6-3.5-5c-.167-2 .3-6.4 3.5-8z" fill="#EB141E"/></svg>