<svg width="14" height="10" fill="none" xmlns="http://www.w3.org/2000/svg"><path d="M10.5 8.792a.874.874 0 100-1.75.874.874 0 100 1.75zm.875-5.25H9.917V5h2.601l-1.143-1.458zM3.5 8.792a.874.874 0 100-1.75.874.874 0 100 1.75zm8.167-6.125L13.417 5v2.917H12.25c0 .968-.782 1.75-1.75 1.75s-1.75-.782-1.75-1.75h-3.5c0 .968-.782 1.75-1.75 1.75s-1.75-.782-1.75-1.75H.583V1.5c0-.648.52-1.167 1.167-1.167h8.167v2.334h1.75zM1.75 1.5v5.25h.443a1.758 1.758 0 012.614 0H8.75V1.5h-7zm4.083.583l2.042 2.042-2.042 2.042V4.708H2.917V3.542h2.916V2.083z" fill="#0E46FB"/></svg>