<svg width="12" height="12" fill="none" xmlns="http://www.w3.org/2000/svg"><path d="M10.667 3.667H7.393l.655-1.964A1.17 1.17 0 007.888.65 1.172 1.172 0 006.94.167H6a.585.585 0 00-.449.21L2.81 3.667H1.333C.69 3.667.167 4.19.167 4.833v5.25c0 .644.523 1.167 1.166 1.167h7.763a1.173 1.173 0 001.092-.757l1.609-4.288A.584.584 0 0011.833 6V4.833c0-.643-.523-1.166-1.166-1.166zM1.333 4.833H2.5v5.25H1.333v-5.25zm9.334 1.061l-1.571 4.19h-5.43V4.46l2.607-3.128h.668l-.91 2.732a.582.582 0 00.552.768h4.084v1.061z" fill="#0E46FB"/></svg>