<svg width="14" height="14" fill="none" xmlns="http://www.w3.org/2000/svg"><path d="M7.125 1a6.125 6.125 0 100 12.25 6.125 6.125 0 000-12.25zm0 11.21a5.087 5.087 0 11.002-10.173 5.087 5.087 0 01-.002 10.174z" fill="#0E46FB"/><path d="M8.65 4.455a2.305 2.305 0 00-1.525-.557c-.574 0-1.116.199-1.526.557a1.864 1.864 0 00-.662 1.412v.104c0 .06.05.11.11.11h.656c.06 0 .11-.05.11-.11v-.104c0-.603.589-1.094 1.312-1.094.723 0 1.313.491 1.313 1.094 0 .425-.301.815-.767.994a1.528 1.528 0 00-.985 1.447v.294c0 .06.05.109.11.109h.656c.06 0 .11-.05.11-.11v-.31a.66.66 0 01.422-.612c.806-.31 1.327-1.022 1.327-1.812a1.858 1.858 0 00-.66-1.412zm-2.072 5.678a.547.547 0 101.093 0 .547.547 0 00-1.093 0z" fill="#0E46FB"/></svg>