<svg width="268" height="60" fill="none" xmlns="http://www.w3.org/2000/svg"><path d="M126.522 30.866l-1.023-2.937h-6.793l-1.023 2.937h-3.627l5.965-16.318h4.163l5.99 16.318h-3.652zm-6.745-5.944h4.675l-2.337-6.668-2.338 6.668zm24.542-2.518c1.493.824 2.24 2.067 2.24 3.73 0 1.383-.511 2.518-1.534 3.403-1.022.886-2.28 1.33-3.774 1.33h-7.231v-16.32h6.72c1.461 0 2.686.436 3.677 1.306 1.006.855 1.509 1.95 1.509 3.287 0 1.352-.536 2.44-1.607 3.264zm-3.579-4.85h-3.36v3.591h3.36c.519 0 .95-.171 1.29-.513a1.7 1.7 0 00.536-1.282c0-.513-.17-.94-.511-1.282-.341-.342-.779-.513-1.315-.513zm.511 10.305c.568 0 1.039-.179 1.413-.536.373-.373.56-.84.56-1.399 0-.544-.187-.995-.56-1.352-.374-.373-.845-.56-1.413-.56h-3.871v3.847h3.871zm20.5-13.311v3.077h-4.602v13.241h-3.36V17.625h-4.577v-3.077h12.539zm17.433 14.197c-1.721 1.632-3.815 2.448-6.282 2.448s-4.561-.816-6.282-2.448c-1.704-1.648-2.556-3.66-2.556-6.038s.852-4.383 2.556-6.015c1.721-1.647 3.815-2.47 6.282-2.47s4.561.823 6.282 2.47c1.72 1.632 2.581 3.637 2.581 6.015 0 2.378-.861 4.39-2.581 6.038zm-10.202-2.192c1.055.995 2.362 1.492 3.92 1.492 1.558 0 2.865-.497 3.92-1.492 1.055-1.01 1.583-2.292 1.583-3.846 0-1.554-.528-2.836-1.583-3.847-1.055-1.01-2.362-1.515-3.92-1.515-1.558 0-2.865.505-3.92 1.515-1.055 1.01-1.583 2.293-1.583 3.847 0 1.554.528 2.836 1.583 3.846zm25.512-4.126c1.624.824 2.435 2.114 2.435 3.87 0 1.46-.576 2.642-1.729 3.543-1.152.902-2.637 1.353-4.455 1.353-3.165 0-5.284-1.283-6.355-3.847l2.897-1.562c.52 1.585 1.672 2.378 3.458 2.378.925 0 1.631-.186 2.118-.56.487-.372.731-.878.731-1.515 0-.637-.244-1.142-.731-1.515-.471-.373-1.152-.56-2.045-.56H188.7v-2.867h1.607c.844 0 1.501-.171 1.972-.513.47-.357.706-.84.706-1.445 0-.606-.203-1.08-.609-1.422-.406-.358-1.006-.537-1.802-.537-1.46 0-2.483.684-3.067 2.052l-2.849-1.585c1.152-2.316 3.125-3.474 5.916-3.474 1.689 0 3.068.435 4.14 1.306 1.071.87 1.606 2.02 1.606 3.45 0 1.46-.608 2.61-1.826 3.45zm17.763 8.439l-1.022-2.937h-6.793l-1.023 2.937h-3.628l5.965-16.318h4.164l5.989 16.318h-3.652zm-6.744-5.944h4.675l-2.338-6.668-2.337 6.668zm20.597-10.374c1.64 0 3.019.528 4.139 1.585s1.68 2.354 1.68 3.893c0 1.539-.56 2.836-1.68 3.893-1.12 1.057-2.499 1.585-4.139 1.585h-2.994v5.362h-3.36V14.548h6.354zm0 7.95c.715 0 1.307-.234 1.778-.7.47-.482.706-1.073.706-1.772 0-.715-.236-1.305-.706-1.772-.471-.466-1.063-.7-1.778-.7h-2.994v4.943h2.994zm21.608-7.95v16.318h-3.36v-5.665h-1.924l-3.92 5.665h-3.774l4.164-6.014a5.479 5.479 0 01-2.654-1.912c-.682-.901-1.023-1.896-1.023-2.984 0-1.492.552-2.766 1.656-3.823 1.104-1.057 2.443-1.585 4.017-1.585h6.818zM240.9 22.38h3.458v-4.826H240.9c-.633 0-1.176.233-1.631.7a2.35 2.35 0 00-.682 1.701c0 .668.228 1.243.682 1.725.455.466.998.7 1.631.7zm25.274 5.409H268v6.201h-3.36v-3.124h-9.422v3.124h-3.36v-6.2h1.655c.942-1.259 1.412-3.1 1.412-5.525v-7.716h11.249V27.79zm-9.057 0h5.697V17.555h-4.529v4.756c0 2.362-.389 4.188-1.168 5.478zM123.943 50.285h-2.071v-4.78h-4.385v4.78h-2.07V39.284h2.07v4.521h4.385v-4.521h2.071v11zm10.903 0h-1.826a6.39 6.39 0 01-.295-1.644c-.511 1.209-1.47 1.813-2.879 1.813-.847 0-1.529-.236-2.045-.71-.511-.477-.766-1.077-.766-1.797 0-1.87 1.714-2.804 5.143-2.804.135 0 .317.003.547.008v-.613c0-.843-.6-1.265-1.801-1.265-1.167 0-1.829.422-1.987 1.265l-1.633-.233c.09-.677.455-1.233 1.095-1.669.639-.44 1.565-.66 2.777-.66.657 0 1.193.053 1.608.16.415.103.766.28 1.052.533.286.247.483.518.589.814.113.29.169.784.169 1.483v3.675c0 .532.084 1.08.252 1.644zm-2.121-4.143c-2.48 0-3.72.567-3.72 1.7 0 .34.123.63.37.871.253.237.631.355 1.136.355.73 0 1.28-.22 1.65-.661.376-.446.564-.951.564-1.515v-.75zm4.936 2.716l1.994-6.713h3.115l1.767 6.713h.775v3.296h-1.246l-.227-1.87h-5.48l-.227 1.87h-1.246v-3.296h.775zm1.54 0h3.417l-1.271-5.287h-.69l-1.456 5.287zm13.815-1.168l1.734.225c-.224.736-.662 1.343-1.313 1.822-.651.478-1.467.717-2.449.717-1.179 0-2.127-.379-2.845-1.136-.718-.758-1.078-1.784-1.078-3.079 0-1.23.362-2.248 1.086-3.054.724-.806 1.706-1.21 2.946-1.21 1.212 0 2.149.398 2.812 1.193.662.796.993 1.816.993 3.063l-.009.21h-5.833c0 .553.054.996.16 1.33.112.332.331.623.657.87.325.247.732.37 1.22.37.949 0 1.588-.44 1.919-1.321zm-.117-2.434c-.006-.586-.191-1.064-.556-1.435a1.787 1.787 0 00-1.338-.556c-.528 0-.968.175-1.322.524-.353.344-.561.833-.623 1.467h3.839zm-3.224-4.546a.954.954 0 01-.674-.25.858.858 0 010-1.233.89.89 0 01.674-.273c.258 0 .482.08.673.241.191.156.286.371.286.645a.78.78 0 01-.286.637 1.01 1.01 0 01-.673.233zm2.82 0a.946.946 0 01-.682-.258.823.823 0 01-.261-.604c0-.236.087-.443.261-.62a.915.915 0 01.682-.275c.252 0 .474.081.664.242.197.156.295.371.295.645a.78.78 0 01-.286.637 1.01 1.01 0 01-.673.233zm12.67 4.707l3.098 4.868h-2.088l-2.373-3.667-.564.153v3.514h-1.844V46.77l-.572-.153-2.449 3.667h-1.877l3.03-4.312-2.727-3.828h2.003l2.289 3.191.303.081v-3.272h1.844v3.272l.303-.08 2.289-3.192h1.902l-2.567 3.272zm5.07 4.868v-8.14h1.919v3.135h3.325v-3.135h1.919v8.14h-1.919v-3.579h-3.325v3.579h-1.919zm10.76 0v-8.14h1.92v2.974h2.239c.97 0 1.683.25 2.137.75.461.499.691 1.12.691 1.86 0 .818-.25 1.449-.749 1.895-.494.44-1.187.66-2.079.66h-4.159zm1.92-1.427h1.86c.471 0 .808-.088 1.01-.266.207-.182.311-.475.311-.878 0-.838-.44-1.257-1.321-1.257h-1.86v2.401zm6.169 1.427v-8.14h1.919v8.14h-1.919zm10.912-2.595l1.734.225c-.225.736-.662 1.343-1.313 1.822-.651.478-1.468.717-2.45.717-1.178 0-2.126-.379-2.845-1.136-.718-.758-1.077-1.784-1.077-3.079 0-1.23.362-2.248 1.086-3.054.724-.806 1.706-1.21 2.946-1.21 1.212 0 2.149.398 2.811 1.193.662.796.993 1.816.993 3.063l-.008.21h-5.833c0 .553.053.996.16 1.33.112.332.331.623.656.87.326.247.733.37 1.221.37.948 0 1.588-.44 1.919-1.321zm-.118-2.434c-.006-.586-.191-1.064-.555-1.435a1.79 1.79 0 00-1.339-.556c-.527 0-.968.175-1.321.524-.354.344-.561.833-.623 1.467h3.838zm12.43 7.777h-1.953V42.145h1.835v1.418c.589-1.058 1.456-1.587 2.601-1.587.943 0 1.694.392 2.256 1.176.561.785.841 1.787.841 3.006 0 1.155-.269 2.16-.808 3.014-.533.855-1.33 1.282-2.39 1.282-1.094 0-1.888-.435-2.382-1.306v3.885zm0-6.085c0 .591.182 1.083.547 1.475.37.387.78.58 1.229.58.611 0 1.058-.255 1.338-.765.286-.516.429-1.169.429-1.959 0-.827-.143-1.499-.429-2.015-.286-.52-.713-.781-1.279-.781-.511 0-.946.212-1.305.636-.353.425-.53.981-.53 1.669v1.16zm13.95.742l1.734.225c-.225.736-.662 1.343-1.313 1.822-.651.478-1.468.717-2.45.717-1.178 0-2.126-.379-2.845-1.136-.718-.758-1.077-1.784-1.077-3.079 0-1.23.362-2.248 1.086-3.054.724-.806 1.706-1.21 2.946-1.21 1.212 0 2.149.398 2.811 1.193.662.796.993 1.816.993 3.063l-.008.21h-5.833c0 .553.053.996.16 1.33.112.332.331.623.656.87.326.247.733.37 1.221.37.948 0 1.588-.44 1.919-1.321zm-.118-2.434c-.006-.586-.191-1.064-.555-1.435a1.79 1.79 0 00-1.339-.556c-.527 0-.968.175-1.321.524-.354.344-.561.833-.623 1.467h3.838zm9.59-6.706h1.97c-.039.543-.233.954-.581 1.234-.342.274-.943.497-1.801.669-.696.14-1.193.279-1.49.419-.297.14-.547.376-.749.709-.202.327-.345.757-.429 1.29.493-.404.886-.654 1.178-.75a3.408 3.408 0 011.052-.145c1.077 0 1.97.357 2.677 1.072.712.714 1.069 1.746 1.069 3.094 0 1.36-.359 2.418-1.078 3.176-.712.757-1.68 1.136-2.904 1.136-1.217 0-2.185-.365-2.904-1.096-.712-.736-1.068-1.915-1.068-3.538 0-.973.086-1.867.26-2.684.18-.817.472-1.504.876-2.063.409-.564.811-.954 1.203-1.169.393-.214.915-.392 1.566-.531.449-.092.746-.188.892-.29.146-.103.233-.28.261-.532zm-1.102 4.844c-1.342 0-2.012.93-2.012 2.789 0 1.837.67 2.756 2.012 2.756 1.307 0 1.961-.919 1.961-2.756 0-1.86-.654-2.789-1.961-2.789zm11.812 6.891v-3.192h-2.046l-1.574 3.192h-2.045l2.104-3.587c-1.049-.37-1.574-1.055-1.574-2.055 0-.843.256-1.47.766-1.877.511-.414 1.173-.621 1.987-.621h4.301v8.14h-1.919zm0-4.538v-2.264h-1.987c-.819 0-1.229.397-1.229 1.193 0 .714.382 1.071 1.145 1.071h2.071zm6.56 4.538V43.57h-2.357v-1.426h6.599v1.426h-2.323v6.714H253zm13.79 0h-1.827a6.434 6.434 0 01-.294-1.644c-.511 1.209-1.47 1.813-2.879 1.813-.847 0-1.529-.236-2.045-.71-.511-.477-.766-1.077-.766-1.797 0-1.87 1.714-2.804 5.143-2.804.134 0 .317.003.547.008v-.613c0-.843-.601-1.265-1.801-1.265-1.168 0-1.83.422-1.987 1.265l-1.633-.233c.09-.677.455-1.233 1.094-1.669.64-.44 1.566-.66 2.778-.66.657 0 1.193.053 1.608.16.415.103.766.28 1.052.533.286.247.482.518.589.814.112.29.168.784.168 1.483v3.675c0 .532.085 1.08.253 1.644zm-2.121-4.143c-2.48 0-3.721.567-3.721 1.7 0 .34.124.63.371.871.252.237.631.355 1.136.355.73 0 1.28-.22 1.65-.661.376-.446.564-.951.564-1.515v-.75zM36.09 1.764c.178-.553.962-.553 1.141 0l3.563 11.012a.6.6 0 00.57.415H52.9c.58 0 .822.743.353 1.085l-9.336 6.812a.6.6 0 00-.217.67l3.565 11.018c.18.553-.455 1.012-.924.67l-9.326-6.805a.6.6 0 00-.708 0l-9.325 6.804c-.47.343-1.104-.116-.925-.67l3.565-11.018a.6.6 0 00-.217-.67l-9.336-6.811c-.469-.342-.227-1.085.354-1.085h11.534a.6.6 0 00.57-.415L36.09 1.764zm36.66 0c.179-.553.962-.553 1.141 0l3.563 11.012a.6.6 0 00.57.415H89.56c.58 0 .822.743.353 1.085l-9.335 6.812a.6.6 0 00-.218.67l3.565 11.018c.18.553-.454 1.012-.924.67l-9.326-6.805a.6.6 0 00-.707 0l-9.326 6.804c-.47.343-1.104-.116-.925-.67l3.565-11.018a.6.6 0 00-.217-.67l-9.336-6.811c-.469-.342-.227-1.085.354-1.085h11.534a.6.6 0 00.57-.415L72.75 1.764z" fill="#0E46FB"/><path d="M18.438 23.583c.18-.553.963-.553 1.142 0l3.563 11.012a.6.6 0 00.57.415h11.535c.58 0 .822.742.353 1.085l-9.336 6.812a.6.6 0 00-.217.669l3.565 11.019c.18.553-.455 1.012-.924.67l-9.326-6.806a.6.6 0 00-.708 0L9.33 55.264c-.47.343-1.104-.116-.925-.67l3.565-11.018a.6.6 0 00-.217-.67l-9.336-6.811c-.47-.343-.227-1.085.354-1.085h11.534a.6.6 0 00.57-.415l3.563-11.012zm35.302-.001c.18-.554.963-.554 1.142 0l3.563 11.012a.6.6 0 00.57.415H70.55c.58 0 .823.742.354 1.085l-9.336 6.811a.6.6 0 00-.217.67l3.565 11.018c.179.554-.455 1.013-.925.67l-9.326-6.805a.6.6 0 00-.707 0l-9.326 6.805c-.47.343-1.103-.116-.924-.67l3.564-11.018a.6.6 0 00-.217-.67l-9.336-6.811c-.469-.343-.227-1.085.354-1.085h11.534a.6.6 0 00.571-.415l3.563-11.012zm35.303 0c.18-.554.963-.554 1.142 0l3.563 11.012a.6.6 0 00.57.415h11.534c.581 0 .823.742.354 1.085l-9.336 6.811a.6.6 0 00-.217.67l3.565 11.018c.179.554-.455 1.013-.925.67l-9.325-6.805a.6.6 0 00-.708 0l-9.326 6.805c-.47.343-1.103-.116-.924-.67l3.565-11.018a.6.6 0 00-.217-.67l-9.336-6.811c-.47-.343-.227-1.085.354-1.085H84.91a.6.6 0 00.57-.415l3.563-11.012z" fill="#0E46FB"/></svg>