<svg width="109" height="60" fill="none" xmlns="http://www.w3.org/2000/svg"><path d="M36.09 1.764c.179-.553.962-.553 1.141 0l3.563 11.012a.6.6 0 00.57.415H52.9c.58 0 .822.743.353 1.085l-9.335 6.812a.6.6 0 00-.218.67l3.565 11.018c.18.553-.455 1.012-.924.67l-9.326-6.805a.6.6 0 00-.707 0l-9.326 6.804c-.47.343-1.104-.116-.925-.67l3.565-11.018a.6.6 0 00-.217-.67l-9.336-6.811c-.469-.342-.227-1.085.354-1.085h11.534a.6.6 0 00.57-.415L36.09 1.764zm36.66 0c.179-.553.962-.553 1.141 0l3.563 11.012a.6.6 0 00.57.415H89.56c.58 0 .823.743.353 1.085l-9.335 6.812a.6.6 0 00-.217.67l3.564 11.018c.18.553-.454 1.012-.924.67l-9.326-6.805a.6.6 0 00-.707 0l-9.326 6.804c-.47.343-1.104-.116-.925-.67l3.565-11.018a.6.6 0 00-.217-.67l-9.336-6.811c-.469-.342-.227-1.085.354-1.085h11.534a.6.6 0 00.571-.415L72.75 1.764z" fill="#0E46FB"/><path d="M18.438 23.583c.18-.553.963-.553 1.142 0l3.563 11.012a.6.6 0 00.57.415h11.535c.58 0 .822.742.353 1.085l-9.336 6.812a.6.6 0 00-.217.669l3.565 11.019c.18.553-.455 1.012-.924.67l-9.326-6.806a.6.6 0 00-.708 0L9.33 55.264c-.47.343-1.104-.116-.925-.67l3.565-11.018a.6.6 0 00-.217-.67l-9.336-6.811c-.47-.343-.227-1.085.354-1.085h11.534a.6.6 0 00.57-.415l3.563-11.012zm35.302-.001c.18-.553.963-.553 1.142 0l3.563 11.012a.6.6 0 00.57.415H70.55c.58 0 .823.742.354 1.085l-9.336 6.812a.6.6 0 00-.217.669l3.564 11.019c.18.553-.454 1.012-.924.669l-9.326-6.805a.6.6 0 00-.707 0l-9.326 6.805c-.47.343-1.104-.116-.925-.67l3.565-11.018a.6.6 0 00-.217-.67l-9.336-6.811c-.469-.343-.227-1.085.354-1.085h11.534a.6.6 0 00.571-.415l3.563-11.012zm35.303 0c.18-.553.963-.553 1.142 0l3.562 11.012a.6.6 0 00.571.415h11.534c.581 0 .823.742.354 1.085l-9.336 6.812a.6.6 0 00-.217.669l3.565 11.019c.179.553-.455 1.012-.925.669l-9.325-6.805a.6.6 0 00-.708 0l-9.326 6.805c-.47.343-1.103-.116-.924-.67l3.565-11.018a.6.6 0 00-.218-.67l-9.335-6.811c-.47-.343-.227-1.085.353-1.085H84.91a.6.6 0 00.57-.415l3.563-11.012z" fill="#0E46FB"/></svg>