<svg width="48" height="15" fill="none" xmlns="http://www.w3.org/2000/svg"><g clip-path="url(#clip0)" fill-rule="evenodd" clip-rule="evenodd"><path d="M12.788 0v.006c-.005 0-1.853-.006-2.346 1.845-.452 1.697-1.725 6.382-1.76 6.511H8.33s-1.302-4.79-1.76-6.517C6.077-.006 4.224 0 4.224 0H0v14.08h4.224V5.719h.352l2.463 8.363h2.934l2.463-8.356h.352v8.356h4.224V0h-4.224zm15.428 0s-1.237.117-1.818 1.476l-2.992 6.886h-.352V0h-4.223v14.08h3.989s1.296-.122 1.877-1.475l2.933-6.887h.352v8.363h4.224V0h-3.99zm5.867 6.395v7.686h4.224V9.59h4.575c1.995 0 3.684-1.333 4.312-3.196H34.083z" fill="#4DB45E"/><path d="M42.882 0H33.49c.47 2.68 2.388 4.833 4.87 5.534.562.16 1.155.246 1.765.246h7.239a4.99 4.99 0 00.094-.984C47.458 2.146 45.41 0 42.882 0z" fill="url(#paint0_linear)"/></g><defs><linearGradient id="paint0_linear" x1="33.491" y1="2.89" x2="47.458" y2="2.89" gradientUnits="userSpaceOnUse"><stop offset=".3" stop-color="#00B4E6"/><stop offset="1" stop-color="#088CCB"/></linearGradient><clipPath id="clip0"><path fill="#fff" d="M0 0h47.458v14.081H0z"/></clipPath></defs></svg>