<svg width="136" height="54" fill="none" xmlns="http://www.w3.org/2000/svg"><path d="M53.995 19.53h-4.454v-.818c0-1.766.009-3.533 0-5.299-.02-4.898-4.003-8.89-8.984-9.007-1.338-.033-2.678 0-4.083 0v15.1c-.345.023-.63.058-.916.06-2.395 0-4.791-.022-7.187.022-.648.012-.976-.215-1.274-.748-2.584-4.59-5.185-9.166-7.759-13.756-.27-.485-.557-.707-1.15-.7-2.968.033-5.937.015-8.907.017-.221 0-.449.019-.852.038l8.545 15.13H13.98c-.85 0-1.698-.024-2.546.009-.46.017-.706-.148-.93-.547-1.835-3.285-3.696-6.555-5.553-9.829a1.322 1.322 0 00-.512-.545v10.838H0V.017h.817C7.83.017 14.84.026 21.851.004c.575 0 .88.157 1.163.662a2568.716 2568.716 0 008.599 15.224c.066.131.184.23.326.274V.066c.337-.02.574-.043.81-.043 2.52 0 5.041-.057 7.56.009 5.305.138 9.358 2.443 12.017 6.984a12.203 12.203 0 011.665 6.11c.018 2.105.004 4.216.004 6.404zM17.548 49.71V37.704c.3-.018.543-.044.784-.044 1.863 0 4.799-.003 8.807-.01 3.193 5.18 5.478 8.972 6.854 11.379.287.501.613.7 1.223.694 2.895-.032 5.79-.013 8.686-.012h1.048l-6.976-12.06c.947 0 2.805-.063 5.575-.188 2.773 4.248 4.584 7.102 5.433 8.564.132.257.325.482.564.656v-8.978H54v16.277h-.79c-7.162 0-14.324-.012-21.485.017-.749 0-1.143-.198-1.505-.835-2.534-4.453-5.114-8.867-7.681-13.296a1.286 1.286 0 00-.506-.513V53.98h-1.448c-2.846-.036-5.691.08-8.525-.144C5.667 53.335.391 48.01.038 41.86c-.078-1.357-.012-2.73-.012-4.144h4.418c0 1.049-.01 2.094 0 3.139.043 3.979 2.62 7.362 6.609 8.432 1.295.349 2.706.315 4.067.41.765.055 1.537.012 2.428.012z" fill="#FFC700"/><path d="M5.811 28.246v-4.705h2.37v8.795c-.677 0-1.355.037-2.02-.022-.21-.019-.44-.267-.58-.462-1.036-1.425-2.054-2.864-3.196-4.468v4.91H0V23.49c.67 0 1.32-.037 1.972.02.21.02.44.247.587.438 1.049 1.443 2.075 2.9 3.11 4.352l.142-.054zm8.396-4.768c2.967.009 4.895 1.875 4.884 4.73-.012 2.815-2.007 4.686-4.963 4.661-2.907-.024-4.858-1.918-4.855-4.708-.003-2.828 1.964-4.692 4.934-4.683zm2.372 4.703c0-1.547-.899-2.499-2.379-2.506-1.48-.007-2.415.955-2.429 2.476-.013 1.52.932 2.498 2.398 2.504 1.467.005 2.404-.936 2.409-2.476l.001.002zm6.097 1.413v2.723h-2.494v-8.839h5.86c1.233.156 1.876 1.38 2.038 2.55.17 1.221-.133 2.288-1.375 2.972-.105.058-.204.124-.371.225l2.575 3.118c-1.008 0-1.872.017-2.735-.017-.153 0-.32-.21-.436-.351-.507-.617-1.032-1.223-1.484-1.873-.367-.532-.813-.726-1.578-.508zm.041-2.027c.706 0 1.34.048 1.961-.014.553-.055.814-.433.814-.944 0-.51-.26-.887-.817-.937-.638-.058-1.289-.014-1.958-.014v1.91zm21.402-4.08v2.001H40.1v1.341h3.636v2.027h-3.637v1.414h4.083v2.078H38.18c-.325 0-.545-.045-.544-.458.012-2.783 0-5.567 0-8.412l6.483.009zM54 32.334c-.933 0-1.7.034-2.46-.021-.224-.016-.491-.245-.628-.447-.525-.779-1.01-1.586-1.55-2.459-.553.888-1.022 1.699-1.563 2.471-.192.24-.473.397-.781.436-.706.061-1.421.02-2.29.02.898-1.339 1.67-2.582 2.554-3.745.489-.644.458-1.084-.025-1.705-.809-1.043-1.509-2.166-2.342-3.383.96 0 1.785-.02 2.608.018.157.008.34.224.448.384.457.684.89 1.383 1.39 2.17.49-.769.908-1.476 1.388-2.139a1.11 1.11 0 01.721-.424c.721-.057 1.443-.02 2.265-.02-.08.175-.17.346-.269.512-.745 1.097-1.482 2.2-2.258 3.277-.253.35-.233.59.007.932.913 1.325 1.798 2.663 2.785 4.123zm-17.455-8.856v2.083h-2.558v6.787h-2.466v-6.764h-2.612v-2.106h7.636zm32.725 2.357h-1.352v-1.748H63.63v1.743h-1.386l-.078-2.92h.537c.29-.24.512-.594.669-1.06.16-.468.267-1.048.322-1.738l.205-3.134h4.658v5.932h.83l-.117 2.925zm-4.888-2.925h2.71v-4.746H65.29l-.122 1.87c-.097 1.253-.36 2.212-.786 2.876zm10.04-5.933h1.47v7.11h-1.47v-4.722l-2.847 4.722H70.11v-7.11h1.465v4.732l2.846-4.732zm6.245 1.959a.74.74 0 00-.318-.635c-.212-.156-.491-.235-.84-.235-.312 0-.573.079-.781.235a.715.715 0 00-.308.6h-1.464c0-.384.107-.729.322-1.035a2.13 2.13 0 01.923-.722 3.27 3.27 0 011.308-.26c.82 0 1.463.177 1.929.528.465.352.698.85.698 1.494 0 .316-.096.609-.288.88a1.97 1.97 0 01-.81.649c.39.136.69.345.898.625.208.276.313.621.313 1.035 0 .638-.251 1.146-.752 1.523-.498.375-1.16.562-1.988.562-.517 0-.983-.088-1.396-.264-.414-.179-.728-.422-.943-.727a1.856 1.856 0 01-.317-1.075h1.475c0 .254.11.467.332.64.221.17.504.254.85.254.39 0 .697-.088.922-.264a.81.81 0 00.342-.669c0-.37-.101-.636-.303-.796-.202-.163-.496-.244-.884-.244h-.874v-1.147h.904c.7-.01 1.05-.328 1.05-.953zm6.68 3.686h-2.57l-.487 1.465h-1.558l2.646-7.11h1.358l2.661 7.11h-1.558l-.493-1.465zm-2.174-1.186h1.778l-.894-2.662-.884 2.662zm9.15-4.459h1.47v7.11h-1.47v-4.722l-2.846 4.722h-1.465v-7.11h1.465v4.732l2.847-4.732zm.284-1.87c0 .433-.156.783-.469 1.05-.31.267-.716.4-1.22.4-.505 0-.914-.131-1.226-.395-.31-.264-.464-.615-.464-1.055h1.001c0 .206.06.365.18.479.124.11.294.166.508.166.212 0 .378-.055.498-.166.121-.114.181-.274.181-.479h1.01zm8.242 8.98h-1.465V21.04h-2.856v3.047h-1.465v-7.11h1.465v2.881h2.856v-2.88h1.465v7.109zM64.143 34.582v2.505h-1.465v-7.11h2.774c.534 0 1.002.098 1.406.293.407.196.72.474.937.835.218.358.328.767.328 1.226 0 .697-.24 1.247-.718 1.65-.475.4-1.135.601-1.978.601h-1.284zm0-1.187h1.309c.387 0 .682-.09.883-.273.206-.182.308-.443.308-.781 0-.349-.103-.63-.308-.845-.205-.215-.488-.325-.85-.332h-1.342v2.231zm8.135 2.227h-2.569l-.488 1.465h-1.557l2.646-7.11h1.358l2.66 7.11h-1.557l-.493-1.465zm-2.173-1.187h1.777l-.893-2.66-.884 2.66zm8.394-2.5a.74.74 0 00-.318-.634c-.211-.156-.491-.235-.84-.235-.312 0-.573.079-.78.235a.715.715 0 00-.309.6h-1.464c0-.384.107-.729.322-1.035.218-.309.526-.55.923-.722a3.27 3.27 0 011.308-.26c.82 0 1.464.177 1.929.528.466.352.698.85.698 1.494 0 .316-.096.609-.288.88a1.97 1.97 0 01-.81.649c.39.136.69.345.898.625.208.276.313.621.313 1.035 0 .638-.251 1.146-.752 1.523-.498.374-1.16.562-1.988.562-.517 0-.983-.088-1.396-.264-.414-.179-.728-.421-.943-.727a1.857 1.857 0 01-.317-1.075h1.475c0 .254.11.467.332.64.221.17.504.254.85.254.39 0 .698-.088.922-.264a.81.81 0 00.342-.669c0-.37-.101-.636-.303-.796-.202-.163-.496-.244-.884-.244h-.874v-1.147h.904c.7-.01 1.05-.328 1.05-.952zm4.13 2.647v2.505h-1.464v-7.11h2.773c.534 0 1.003.098 1.406.293.407.196.72.474.938.835.218.358.327.767.327 1.226 0 .697-.24 1.247-.718 1.65-.475.4-1.134.601-1.977.601h-1.285zm0-1.187h1.309c.387 0 .682-.09.884-.273.205-.182.307-.443.307-.781 0-.349-.102-.63-.307-.845-.205-.215-.489-.325-.85-.332H82.63v2.231zm8.135 2.227h-2.568l-.489 1.465H86.15l2.646-7.11h1.358l2.66 7.11h-1.557l-.493-1.465zm-2.173-1.187h1.778l-.894-2.66-.884 2.66zm9.527-3.27h-3.174v1.376h1.142c.837 0 1.5.204 1.988.61.491.404.737.95.737 1.636 0 .69-.244 1.245-.732 1.665-.485.417-1.132.628-1.939.635h-2.676v-7.11h4.654v1.187zm-3.174 2.558v2.187h1.167c.374 0 .672-.102.893-.307.225-.206.337-.48.337-.826 0-.322-.107-.576-.322-.761-.212-.19-.503-.287-.874-.293h-1.201zm10.644-.03c0 .7-.123 1.314-.371 1.841a2.788 2.788 0 01-1.064 1.22c-.459.287-.986.43-1.582.43a2.957 2.957 0 01-1.577-.424 2.819 2.819 0 01-1.075-1.211c-.254-.527-.382-1.133-.385-1.817v-.351c0-.7.125-1.315.376-1.846.254-.534.61-.942 1.069-1.225.462-.287.99-.43 1.582-.43.592 0 1.118.143 1.577.43.462.283.819.691 1.07 1.225.253.53.38 1.144.38 1.841v.317zm-1.484-.322c0-.745-.133-1.312-.4-1.7-.267-.386-.648-.58-1.143-.58-.492 0-.871.192-1.138.576-.267.38-.402.94-.405 1.68v.346c0 .726.134 1.29.4 1.69.267.4.651.6 1.153.6.491 0 .869-.192 1.133-.576.263-.387.397-.95.4-1.69v-.346zm7.48-2.207h-2.177v5.923h-1.465v-5.923h-2.149v-1.187h5.791v1.187zm3.16 3.018h-.845v2.905h-1.465v-7.11h1.465v2.847h.669l1.738-2.846h1.787l-2.192 3.364 2.422 3.745h-1.748l-1.831-2.905zm8.159 1.44h-2.569l-.488 1.465h-1.557l2.646-7.11h1.357l2.662 7.11h-1.558l-.493-1.465zm-2.173-1.187h1.777l-.893-2.66-.884 2.66z" fill="#000"/></svg>