<svg width="24" height="24" fill="none" xmlns="http://www.w3.org/2000/svg"><circle opacity=".7" cx="11.778" cy="11.778" r="11.778" fill="#3BB935"/><path d="M17.584 6.8h0H6.446a.593.593 0 00-.459.193.657.657 0 00-.18.47v2.822a.836.836 0 000 .223v5.04s0 0 0 0a.683.683 0 00.18.46.617.617 0 00.45.192H17.58c.17 0 .329-.073.444-.197a.671.671 0 00.176-.456V7.461s0 0 0 0a.68.68 0 00-.175-.458h0a.613.613 0 00-.441-.203zm-.631 8.086H7.062V11.05h9.891v3.837zm0-5.15H7.062V8.113h9.891v1.621z" fill="#fff" stroke="#fff" stroke-width=".4"/></svg>