<svg width="24" height="24" fill="none" xmlns="http://www.w3.org/2000/svg"><circle opacity=".7" cx="11.778" cy="11.778" r="11.778" fill="#3BB935"/><path d="M9.285 16.685a.2.2 0 01-.2-.2v-1.07a.2.2 0 00-.2-.2h-.833a.2.2 0 01-.2-.2v-.934c0-.11.09-.2.2-.2h.833a.2.2 0 00.2-.2v-.672a.2.2 0 00-.2-.2h-.833a.2.2 0 01-.2-.2v-1.305c0-.11.09-.2.2-.2h.833a.2.2 0 00.2-.2V7.07c0-.11.09-.2.2-.2H12.6c1.418 0 2.45.257 3.098.77.658.513.987 1.219.987 2.117a2.97 2.97 0 01-.4 1.498c-.268.467-.715.843-1.342 1.127-.617.284-1.46.427-2.528.427h-.802a.2.2 0 00-.2.2v.672c0 .11.09.2.2.2h1.974c.11 0 .2.09.2.2v.933a.2.2 0 01-.2.2h-1.974a.2.2 0 00-.2.2v1.07a.2.2 0 01-.2.2H9.285zm2.128-5.781c0 .11.09.2.2.2h.57c.658 0 1.177-.1 1.558-.302.39-.202.585-.527.585-.976 0-.834-.616-1.251-1.85-1.251h-.863a.2.2 0 00-.2.2v2.129z" fill="#fff"/></svg>