<svg width="23" height="23" fill="none" xmlns="http://www.w3.org/2000/svg"><path d="M19.187 14.076c-.824-.803-1.854-.803-2.673 0-.625.61-1.25 1.222-1.864 1.844-.168.17-.31.207-.515.093-.404-.218-.835-.394-1.224-.632-1.811-1.124-3.33-2.569-4.674-4.195-.667-.808-1.26-1.673-1.675-2.647-.084-.197-.068-.326.095-.487.624-.596 1.234-1.207 1.848-1.818.856-.85.856-1.844-.005-2.698-.489-.487-.977-.964-1.465-1.45-.505-.498-1.003-1-1.513-1.492C4.698-.2 3.668-.2 2.85.599 2.22 1.21 1.616 1.837.975 2.438.381 2.992.081 3.67.018 4.463c-.1 1.29.22 2.507.673 3.693.924 2.455 2.331 4.635 4.038 6.634a24.944 24.944 0 008.277 6.387c1.45.694 2.951 1.227 4.585 1.315 1.123.063 2.1-.217 2.883-1.082.536-.59 1.14-1.13 1.707-1.694.84-.839.845-1.854.01-2.683-.998-.99-2-1.973-3.004-2.957z" fill="#10154D"/></svg>