<svg width="14" height="18" fill="none" xmlns="http://www.w3.org/2000/svg"><path d="M.558 5.18l3.195-3.768h.002l.01-.005h.002a.509.509 0 01.028-.012l.007-.002h9.589a.07.07 0 01.052.02c.01.01.02.025.02.052v15.056a.07.07 0 01-.02.053.07.07 0 01-.052.02H.609c-.03 0-.072-.028-.072-.087V5.25a1.35 1.35 0 00.007-.038v-.005l.007-.02.007-.008zm.007-.115v.002-.002zm3.167-2.037V1.665l-.881 1.04L1.456 4.35l-.698.823h2.974V3.028zm-2.55 2.277h-.5v11.144h12.636V1.537H3.877v3.696a.07.07 0 01-.02.052.07.07 0 01-.052.02H1.18z" fill="#B3B3B3" stroke="#B3B3B3"/><path d="M4.823 11.177a.25.25 0 00.354 0l1.59-1.591a.25.25 0 00-.353-.354L5 10.647 3.586 9.232a.25.25 0 00-.354.354l1.591 1.59zM4.75 7v4h.5V7h-.5zm4.073-.177a.25.25 0 01.354 0l1.59 1.591a.25.25 0 01-.353.354L9 7.354 7.586 8.768a.25.25 0 01-.354-.354l1.591-1.59zM8.75 11V7h.5v4h-.5z" fill="#B3B3B3"/></svg>