<svg width="13" height="14" fill="red" xmlns="http://www.w3.org/2000/svg"><path fill-rule="evenodd" clip-rule="evenodd" d="M13 2.38c0 1.314-1.027 2.38-2.294 2.38a2.24 2.24 0 01-1.529-.606l-4.6 2.625a2.216 2.216 0 01-.047.724l4.603 2.626c.41-.377.964-.609 1.573-.609 1.267 0 2.294 1.003 2.294 2.24 0 1.237-1.027 2.24-2.294 2.24-1.175 0-2.143-.862-2.278-1.973a1.004 1.004 0 01-.062-.033l-5.154-2.94c-.28.12-.591.186-.918.186C1.027 9.24 0 8.237 0 7c0-1.237 1.027-2.24 2.294-2.24.442 0 .854.122 1.204.333l4.868-2.778a1.02 1.02 0 01.047-.026C8.46 1.017 9.468 0 10.706 0 11.973 0 13 1.066 13 2.38z"/></svg>