<svg width="23" height="23" fill="none" xmlns="http://www.w3.org/2000/svg"><path d="M17.697 22.569a.883.883 0 01-.535-.182l-5.878-4.472-5.878 4.472a.875.875 0 01-1.068 0 .977.977 0 01-.33-1.064l2.245-7.237L.375 9.615a.977.977 0 01-.33-1.064.913.913 0 01.864-.658h7.266L10.42.657A.913.913 0 0111.284 0c.393 0 .743.265.864.657l2.246 7.236h7.266c.394 0 .743.266.864.658a.977.977 0 01-.33 1.064l-5.878 4.472 2.245 7.236a.978.978 0 01-.33 1.064.881.881 0 01-.534.182z" fill="#B3B3B3"/><path fill-rule="evenodd" clip-rule="evenodd" d="M11 .048a.93.93 0 00-.58.61L8.175 7.892H.909a.913.913 0 00-.865.658.977.977 0 00.33 1.064l5.879 4.471-2.246 7.237a.977.977 0 00.33 1.064.874.874 0 001.069 0L11 18.13V.048z" fill="#FF8A00"/></svg>