<svg width="30" height="29" fill="none" xmlns="http://www.w3.org/2000/svg"><path d="M15.165 22.396l.298.222 7.727 5.747a.678.678 0 00.809 0 .74.74 0 00.256-.814s0 0 0 0l-2.952-9.299-.107-.34.286-.212 7.728-5.747.298.402-.298-.402a.739.739 0 00.255-.814.698.698 0 00-.66-.496h-9.918l-.11-.349L15.824.996h0a.698.698 0 00-.66-.496.697.697 0 00-.659.496h0l-2.951 9.298-.111.349H1.525a.697.697 0 00-.66.495l14.3 11.258zm0 0l-.299.222m.299-.222l-.299.222m0 0L7.14 28.365h0m7.727-5.747l-7.728 5.747m0 0a.671.671 0 01-.807 0h0m.807 0h-.807m0 0a.739.739 0 01-.256-.815s0 0 0 0l2.952-9.298.108-.34M6.33 28.365l2.804-10.453m0 0l-.287-.213m.287.213l-.287-.213m0 0L1.12 11.953M8.848 17.7l-7.727-5.746m0 0s0 0 0 0m0 0h0m0 0a.74.74 0 01-.256-.815l.256.815z" fill="#fff" stroke="#FF8A00"/></svg>