<svg width="210" height="210" fill="none" xmlns="http://www.w3.org/2000/svg"><path opacity=".3" d="M150.633 60.696c-4.512-2.499-9.546 2.32-12.496 5.175-6.769 6.782-12.496 14.634-18.918 21.773-7.116 7.852-13.711 15.705-21 23.379-3.54 3.64-7.33 7.537-10.093 11.911-.722 1.143-2.336 1.39-3.274.415-5.465-5.683-10.434-11.648-16.659-16.609-5.033-3.926-13.364-6.782-13.19 2.677.347 12.314 10.934 25.521 18.744 33.908 3.297 3.57 7.636 7.318 12.67 7.496 6.074.357 12.322-7.139 15.967-11.243 6.422-7.139 11.629-15.17 17.529-22.487 7.637-9.637 15.447-19.096 22.91-28.912 4.686-6.067 19.438-21.059 7.81-27.483zM62.06 108.39c.164.08.143.368-.022.445-.04.018-.117.039-.16.028-.38-.099-.71-.2-1.049-.334-.367-.144-.348-.573.044-.529.336.038.732.168 1.187.39z" fill="#3BB935"/><circle opacity=".3" cx="105" cy="105" r="103" stroke="#3BB935" stroke-width="4"/></svg>