<svg width="16" height="15" fill="none" xmlns="http://www.w3.org/2000/svg"><path d="M14.664.44c-.692-.384-1.464.358-1.916.798-1.038 1.046-1.916 2.256-2.901 3.356-1.091 1.21-2.102 2.42-3.22 3.604-.639.66-1.33 1.375-1.757 2.2-.958-.963-1.783-2.008-2.847-2.86C1.25 6.931-.027 6.491 0 7.95c.054 1.898 1.677 3.933 2.875 5.226.505.55 1.17 1.128 1.942 1.155.932.056 1.89-1.1 2.449-1.732.984-1.1 1.783-2.338 2.687-3.466 1.171-1.486 2.369-2.944 3.513-4.456.719-.936 2.98-3.246 1.198-4.236zM1.17 7.84c-.026 0-.053 0-.106.027a1.269 1.269 0 01-.293-.11c.08-.055.213-.027.4.083z" fill="#0E46FB"/></svg>