<svg width="50" height="15" fill="none" xmlns="http://www.w3.org/2000/svg"><path d="M21.431 14.134h-4.006L19.93 0h4.006L21.43 14.134zM35.954.602A10.71 10.71 0 0032.361 0c-3.956 0-6.742 1.925-6.76 4.676-.032 2.03 1.995 3.158 3.512 3.835 1.55.691 2.076 1.143 2.076 1.76-.015.946-1.252 1.383-2.405 1.383-1.6 0-2.457-.225-3.76-.752l-.527-.226-.56 3.173c.94.39 2.67.737 4.468.752 4.203 0 6.94-1.895 6.972-4.827.016-1.609-1.054-2.842-3.362-3.85-1.402-.646-2.26-1.082-2.26-1.744.017-.601.726-1.217 2.308-1.217a7.368 7.368 0 012.984.54l.362.15.545-3.051zm5.324 8.525c.33-.812 1.6-3.955 1.6-3.955-.017.03.329-.827.526-1.353l.28 1.218s.76 3.383.924 4.09h-3.33zM46.223 0h-3.099c-.955 0-1.681.255-2.094 1.173l-5.95 12.961h4.203l.841-2.12h5.144c.115.496.478 2.12.478 2.12h3.71L46.222 0zM14.08 0l-3.924 9.638-.43-1.954c-.724-2.256-3-4.707-5.538-5.925l3.594 12.36h4.236L18.315 0H14.08z" fill="#0066CB"/><path d="M6.512 0H.066L0 .286c5.028 1.173 8.358 4 9.726 7.399L8.325 1.189C8.095.286 7.385.03 6.512 0z" fill="#FCA311"/></svg>