<svg width="48" height="20" fill="none" xmlns="http://www.w3.org/2000/svg"><path d="M18.018.25l-6.213 13.7H7.752L4.694 3.016c-.185-.672-.347-.919-.91-1.203C2.86 1.35 1.337.917 0 .648L.09.25h6.526c.831 0 1.579.511 1.769 1.396L10 9.575 13.989.25h4.03zm5.48 0l-3.17 13.7h-3.835l3.17-13.7h3.835zm10.403 9.227c.016-3.615-5.408-3.815-5.373-5.43.013-.492.52-1.015 1.627-1.148.549-.066 2.065-.118 3.782.613L34.61.605A11.09 11.09 0 0031.022 0c-3.79 0-6.458 1.861-6.479 4.528-.025 1.973 1.905 3.072 3.356 3.73 1.495.67 1.996 1.102 1.989 1.701-.01.92-1.194 1.327-2.294 1.342-1.928.028-3.046-.482-3.938-.866l-.696 3.003c.897.38 2.55.71 4.263.727 4.03 0 6.666-1.84 6.678-4.688zm10.011 4.473h3.546L44.36.25h-3.271c-.738 0-1.358.396-1.633 1.004L33.7 13.95h4.027l.8-2.046h4.92l.464 2.046zm-4.28-4.854l2.019-5.145 1.16 5.145h-3.18zm-11.226 8.625h-1.558v1.34h1.743v.404h-2.268v-3.72h2.179v.404h-1.654v1.175h1.558v.397zm.99-2.174h.525v3.918h-.525v-3.918zm1.85 2.67c.012.657.46.928.99.928.377 0 .61-.061.8-.138l.096.347a2.523 2.523 0 01-.967.171c-.889 0-1.42-.546-1.42-1.351 0-.806.513-1.435 1.355-1.435.949 0 1.194.762 1.194 1.253 0 .099-.006.17-.019.226h-2.029zm1.54-.347c.006-.303-.137-.783-.728-.783-.537 0-.764.447-.806.783h1.534zm3.365 1.5a2.17 2.17 0 01-.83.155c-.87 0-1.438-.546-1.438-1.362 0-.823.609-1.424 1.552-1.424.31 0 .585.072.728.144l-.119.37a1.373 1.373 0 00-.609-.128c-.663 0-1.02.458-1.02 1.01 0 .618.43.998 1.002.998.299 0 .496-.066.645-.126l.09.364zm1.474-3.216v.64h.752v.37h-.752v1.44c0 .331.101.518.394.518.143 0 .227-.01.304-.033l.024.37a1.54 1.54 0 01-.465.066c-.245 0-.442-.077-.567-.204-.144-.149-.203-.386-.203-.7v-1.457h-.448v-.37h.447v-.496l.514-.144zm1.485 1.473c0-.314-.006-.584-.024-.833h.46l.024.53h.018a.866.866 0 01.805-.585c.054 0 .096.006.144.011v.458c-.054-.011-.107-.011-.18-.011-.37 0-.632.254-.704.618a1.356 1.356 0 00-.017.226v1.424h-.526v-1.838zm4.655.48c0 .988-.746 1.418-1.438 1.418-.776 0-1.385-.53-1.385-1.373 0-.889.639-1.413 1.433-1.413.83 0 1.39.557 1.39 1.368zm-2.286.028c0 .585.358 1.026.872 1.026.501 0 .877-.436.877-1.037 0-.452-.245-1.021-.866-1.021-.614 0-.883.53-.883 1.032zm3.091-.618a8.7 8.7 0 00-.024-.723h.466l.03.442h.012c.143-.249.477-.497.955-.497.4 0 1.02.22 1.02 1.136v1.59h-.525v-1.54c0-.43-.173-.789-.668-.789a.75.75 0 00-.704.497.642.642 0 00-.037.226v1.605h-.525v-1.947z" fill="#0066CB"/></svg>