<svg width="13" height="13" fill="none" xmlns="http://www.w3.org/2000/svg"><g clip-path="url(#clip0)" fill="#0E46FB"><path d="M11.414.897H2.448a.448.448 0 110-.897h8.966a.448.448 0 110 .897zm0 12.103H2.448a.448.448 0 110-.896h8.966a.448.448 0 110 .896z"/><path d="M10.07 2.465V.896H3.792v1.57c0 1.564.834 2.992 2.158 3.769a.308.308 0 010 .53 4.37 4.37 0 00-2.158 3.77v1.568h6.276v-1.569A4.37 4.37 0 007.91 6.765a.308.308 0 010-.53 4.37 4.37 0 002.158-3.77z"/></g><defs><clipPath id="clip0"><path fill="#fff" d="M0 0h13v13H0z"/></clipPath></defs></svg>