<svg width="13" height="11" fill="none" xmlns="http://www.w3.org/2000/svg"><path d="M2.471 10.529v-7.95L0 3.325V1.568L4.423 0h.224v10.529H2.47zM6.684.238h5.962v1.793H8.469l-.253 2.204c.174-.101.4-.193.68-.275a3.11 3.11 0 01.881-.123c.68 0 1.26.14 1.742.42a2.69 2.69 0 011.098 1.213C12.872 6 13 6.636 13 7.378c0 .636-.135 1.222-.405 1.756a3.067 3.067 0 01-1.207 1.287c-.534.322-1.192.484-1.972.484a4.133 4.133 0 01-1.75-.376 3.354 3.354 0 01-1.329-1.077c-.337-.472-.51-1.021-.52-1.647h2.168c.038.419.183.749.433.99.256.236.586.354.99.354.487 0 .844-.174 1.07-.52.226-.352.34-.815.34-1.388 0-.559-.138-.995-.412-1.308-.27-.318-.68-.477-1.229-.477-.337 0-.61.05-.816.152a2.058 2.058 0 00-.557.412L6.07 5.593 6.684.238z" fill="#0E46FB"/></svg>