<svg width="10" height="13" fill="none" xmlns="http://www.w3.org/2000/svg"><path d="M1.896 13a.5.5 0 01-.5-.5v-.948a.5.5 0 00-.5-.5H.5a.5.5 0 01-.5-.5v-.766a.5.5 0 01.5-.5h.396a.5.5 0 00.5-.5v-.42a.5.5 0 00-.5-.5H.5a.5.5 0 01-.5-.5V6.108a.5.5 0 01.5-.5h.396a.5.5 0 00.5-.5V.5a.5.5 0 01.5-.5h3.48C6.98 0 8.15.34 8.882 1.02 9.628 1.7 10 2.634 10 3.824a4.46 4.46 0 01-.454 1.984c-.302.62-.808 1.117-1.518 1.493-.698.376-1.652.565-2.862.565H4.53a.5.5 0 00-.5.5v.42a.5.5 0 00.5.5h1.69a.5.5 0 01.5.5v.766a.5.5 0 01-.5.5H4.531a.5.5 0 00-.5.5v.948a.5.5 0 01-.5.5H1.896zm2.135-7.892a.5.5 0 00.5.5h.373c.745 0 1.332-.134 1.763-.4.442-.268.663-.699.663-1.293 0-1.105-.698-1.657-2.094-1.657H4.53a.5.5 0 00-.5.5v2.35z" fill="#0E46FB"/></svg>