<svg width="14" height="13" fill="none" xmlns="http://www.w3.org/2000/svg"><path d="M13.389.1c-.632-.358-1.337.332-1.75.74-.947.97-1.75 2.095-2.648 3.116-.997 1.124-1.92 2.248-2.94 3.346-.584.613-1.215 1.277-1.604 2.044-.875-.894-1.628-1.865-2.6-2.657-.705-.562-1.87-.97-1.847.384.049 1.762 1.531 3.652 2.625 4.852.461.511 1.069 1.048 1.773 1.073.85.051 1.725-1.021 2.236-1.609.899-1.022 1.628-2.171 2.454-3.218 1.069-1.38 2.162-2.733 3.207-4.138.656-.868 2.722-3.014 1.094-3.933zM1.069 6.97c-.024 0-.048 0-.097.026a1.146 1.146 0 01-.267-.102c.073-.051.194-.026.364.076z" fill="#0E46FB"/></svg>