<svg width="372" height="298" fill="none" xmlns="http://www.w3.org/2000/svg"><g filter="url(#filter0_d)"><rect x="30" y="30" width="312" height="238" rx="5" fill="#3BB935"/></g><mask id="a" maskUnits="userSpaceOnUse" x="30" y="30" width="312" height="238"><rect x="30" y="30" width="312" height="238" rx="5" fill="#FF8A00"/></mask><g mask="url(#a)"><path d="M330.966 210.851h-56.228v-24.692c0-1.357-.614-2.57-1.581-3.377l-.016-.013-.062-.05-.013-.011-.059-.045-.021-.016-.056-.042-.023-.018-.051-.036-.036-.025a1.082 1.082 0 00-.043-.029l-.043-.028a27034063894.183 27034063894.183 0 00-.084-.053l-.047-.029-.041-.024-.042-.024a1.353 1.353 0 00-.052-.029l-.038-.021a2.149 2.149 0 00-.109-.056l-.069-.034-.042-.02a1.079 1.079 0 00-.049-.023l-.042-.019-.054-.024a.738.738 0 00-.042-.017l-.051-.021-.046-.018-.051-.019a.778.778 0 00-.044-.016l-.056-.02-.04-.013-.067-.022-.03-.009-.069-.021-.033-.01-.091-.025-.007-.002-.102-.025-.029-.007a2.005 2.005 0 00-.075-.016l-.033-.007a1.45 1.45 0 00-.109-.02 1.38 1.38 0 00-.068-.011l-.036-.005-.07-.01-.037-.005-.071-.008-.035-.004c-.024-.002-.049-.005-.074-.006l-.033-.003a2.2 2.2 0 00-.081-.005l-.027-.001a3.614 3.614 0 00-.104-.004h-.003l-.113-.002h-3.046l5.76-5.761a8.396 8.396 0 000-11.874l-.072-.071a8.396 8.396 0 00-11.8.071l-2.748 2.748-4.723 4.723 10.163 10.163-6.973-6.973-3.189-3.189-10.163 10.163h-41.149a4.399 4.399 0 00-4.398 4.398v58.019c0 2.43 1.97 4.398 4.398 4.398h8.429v16.485c0 2.612 3.158 3.92 5.006 2.074l18.557-18.558h24.236v24.692a4.397 4.397 0 004.398 4.398h35.951l18.557 18.558c1.847 1.846 5.005.538 5.005-2.074v-16.485h8.43a4.398 4.398 0 004.398-4.398v-58.019a4.4 4.4 0 00-4.399-4.398z" fill="#382B73"/><path d="M270.34 185.317h-67.942a4.398 4.398 0 00-4.398 4.398v51.796a4.399 4.399 0 004.398 4.398h8.429v16.485c0 2.612 3.158 3.92 5.006 2.073l18.557-18.557h35.951a4.397 4.397 0 004.398-4.398v-51.797a4.398 4.398 0 00-4.399-4.398z" fill="#136DA0"/><path d="M270.34 179.094h-67.942a4.399 4.399 0 00-4.398 4.398v51.796a4.399 4.399 0 004.398 4.398h8.429v15.278c0 2.612 3.158 3.92 5.006 2.073l17.35-17.351h37.157a4.397 4.397 0 004.398-4.398v-51.797a4.397 4.397 0 00-4.398-4.397z" fill="#1CAEE4"/><path d="M330.965 214.406h-67.942a4.397 4.397 0 00-4.398 4.397V270.6a4.398 4.398 0 004.398 4.398h35.95l18.558 18.557c1.846 1.847 5.005.539 5.005-2.074v-16.484h8.429a4.398 4.398 0 004.398-4.398v-51.797a4.398 4.398 0 00-4.398-4.396z" fill="#E7AD27"/><path d="M330.966 208.183h-67.943a4.398 4.398 0 00-4.398 4.398v51.796a4.398 4.398 0 004.398 4.398h37.158l17.35 17.35c1.847 1.847 5.005.539 5.005-2.072v-15.278h8.43a4.398 4.398 0 004.398-4.398v-51.796a4.399 4.399 0 00-4.398-4.398z" fill="#FFF81C"/><path d="M281.806 239.685a5.454 5.454 0 11-10.907 0 5.454 5.454 0 0110.907 0zm20.653 0a5.454 5.454 0 11-10.909 0 5.454 5.454 0 0110.909 0zm20.653 0a5.454 5.454 0 11-10.909 0 5.454 5.454 0 0110.909 0z" fill="#E7AD27"/><path d="M215.041 227.726h-.005l-.055.003.06-.003zm.187-.028l-.013.002.013-.002zm-.654-.037l-.021-.008-.03-.011.051.019z" fill="#FEDE3A"/><path d="M273.215 180.163a4.38 4.38 0 00-2.875-1.069h-19.797l-32.613 32.613-4.103 14.513a1.188 1.188 0 00.646 1.4l.08.034.03.011.012.004a.494.494 0 00.036.011l.013.004a.786.786 0 00.229.04h.001l.01.001h.009l.055.002h.02a.773.773 0 00.068-.003h.007l.073-.007-.023.002.024-.002.021-.003.057-.01.02-.004h.001a.687.687 0 00.075-.019l14.513-4.104 2.471-2.47 33.31-33.309 7.471-7.472.159-.163z" fill="#009ADD"/><path d="M215.042 227.725a.88.88 0 00.051-.005l-.051.005c.001 0 0 0 0 0zm-.463-.062l.064.02-.013-.004c-.016-.005-.032-.009-.047-.015l-.004-.001zm.282.061zm55.445-51.645l-11.873-11.873-4.724 4.724 11.874 11.873 4.723-4.724z" fill="#FEDE3A"/><path d="M267.024 172.797l-5.308-5.308-4.724 4.723 5.308 5.309 4.724-4.724z" fill="#FFF335"/><path d="M273.054 161.459a8.395 8.395 0 00-11.873 0l-2.747 2.747 11.873 11.873 2.747-2.747a8.395 8.395 0 000-11.873z" fill="#1CAEE4"/><path d="M273.054 161.459a3.886 3.886 0 00-5.495 0l-5.937 5.937 5.496 5.495 5.936-5.937a3.884 3.884 0 000-5.495z" fill="#27C1E6"/><path d="M229.803 216.584l-11.873-11.873-4.103 14.513a1.185 1.185 0 001.463 1.463l14.513-4.103z" fill="#E6E7E8"/><path d="M214.369 220.569zm-.425-.424z" fill="#EF5A9D"/><path d="M253.709 168.93l-35.78 35.78 11.874 11.873 35.779-35.779-11.873-11.874z" fill="#FEDE3A"/><path d="M256.899 172.12l-35.78 35.779 5.495 5.495 35.779-35.779-5.494-5.495z" fill="#FFF335"/><path d="M226.614 213.394l-5.495-5.495-6.899 11.717c-.424.721-.043 1.101.676.678l11.718-6.9z" fill="#fff"/><path d="M215.184 214.423l-1.357 4.8a1.185 1.185 0 001.463 1.463l4.801-1.357-4.907-4.906z" fill="#49395D"/><circle cx="324" cy="148" r="199" fill="#FAFF00" fill-opacity=".4"/></g><defs><filter id="filter0_d" x="0" y="0" width="372" height="298" filterUnits="userSpaceOnUse" color-interpolation-filters="sRGB"><feFlood flood-opacity="0" result="BackgroundImageFix"/><feColorMatrix in="SourceAlpha" values="0 0 0 0 0 0 0 0 0 0 0 0 0 0 0 0 0 0 127 0"/><feOffset/><feGaussianBlur stdDeviation="15"/><feColorMatrix values="0 0 0 0 0.0627451 0 0 0 0 0.0823529 0 0 0 0 0.301961 0 0 0 0.2 0"/><feBlend in2="BackgroundImageFix" result="effect1_dropShadow"/><feBlend in="SourceGraphic" in2="effect1_dropShadow" result="shape"/></filter></defs></svg>